<?xml version="1.0" encoding="UTF-8"?> <svg xmlns="http://www.w3.org/2000/svg" xmlns:xlink="http://www.w3.org/1999/xlink" fill="none" viewBox="0 0 1440 800"><defs><path fill="#fff" d="M0 0h1440v800H0z" id="reuse-0"></path></defs><g clip-path="url(#a)"><path d="M940.311 558 1030 502.914 917.873 437 827 489.479 940.311 558Z" fill="url(#b)"></path><path d="M875.673 588 965 532.759 924.508 510 834 562.627 875.673 588Z" fill="url(#c)"></path><path d="M964.673 632 1054 576.759 1013.51 554 923 606.627 964.673 632Z" fill="url(#d)"></path><path d="m1068.67 571 89.33-55.241L1117.51 493 1027 545.627 1068.67 571Z" fill="url(#e)"></path><path fill-rule="evenodd" clip-rule="evenodd" d="m1219.24 355.473-113.06-65.61s-8.56 4.96-19.19 11.126a262.363 262.363 0 0 0-70.42 59.594v.001a277.631 277.631 0 0 1-74.499 63.047l-34.911 20.243 113.79 66.033s14.99-8.744 31.25-18.235a243.946 243.946 0 0 0 69.25-60.476 227.013 227.013 0 0 1 64.39-56.226c17.02-9.934 33.4-19.497 33.4-19.497Z" fill="#18A0AA"></path><path fill-rule="evenodd" clip-rule="evenodd" d="m1206.4 354.57-98.6-57.215s-4.41 2.338-10.69 5.661a241.78 241.78 0 0 0-72.49 58.804v.001a314.603 314.603 0 0 1-83.79 70.679l-18.886 10.949 98.046 56.897s10.28-5.282 22.65-11.643a203.573 203.573 0 0 0 70.6-60.03 219.243 219.243 0 0 1 70.9-61.905c12.19-6.676 22.26-12.198 22.26-12.198Z" fill="#2CD4D9"></path><path d="M1095.13 376.174c-14.78-8.575-39.47-7.311-55.14 2.824-15.67 10.133-16.39 25.299-1.61 33.874 14.77 8.574 39.46 7.312 55.13-2.821 15.67-10.135 16.39-25.302 1.62-33.877ZM1031.41 490.954c-5.95-3.456-15.61-3.457-21.56-.001-5.95 3.454-5.95 9.057 0 12.512 5.96 3.455 15.61 3.456 21.57.001 5.95-3.454 5.95-9.057-.01-12.512ZM1203.71 349.646c-5.95-3.455-15.61-3.456-21.56 0-5.95 3.453-5.95 9.056 0 12.512 5.96 3.455 15.61 3.456 21.57.001 5.95-3.455 5.95-9.057-.01-12.513ZM940.158 437.74c-5.955-3.456-15.609-3.457-21.563-.001-5.953 3.455-5.952 9.057.003 12.512 5.954 3.455 15.608 3.456 21.562.002 5.954-3.455 5.953-9.058-.002-12.513ZM1116.22 298.615c-5.96-3.454-15.61-3.456-21.56-.001-5.96 3.455-5.96 9.058 0 12.514 5.95 3.454 15.61 3.455 21.56.001 5.96-3.455 5.96-9.058 0-12.514Z" fill="#18A0AA"></path><path d="m1023.05 441.455-32.268 13.871-.014-.033c-1.663.763-4.421.161-6.879-1.686-3.032-2.276-4.429-5.546-3.116-7.301 1.311-1.759 4.832-1.336 7.865.941.133.102.248.214.376.32l29.166-11.453 4.87 5.341Z" fill="url(#f)"></path><path d="m989.927 437.692.071-.038-.453.422c2.678-1.766 4.158-.776 4.158-.776s5.191 3.73 9.917 7.473l-13.537 6.738-9.242-5.34 9.086-8.479Z" fill="#150773"></path><path d="M1046.59 442.325s.64.235 1.61-.071M1045.2 443.123s.64.235 1.61-.071M1043.52 443.952s.64.236 1.61-.071" stroke="#2CD4D9" stroke-width=".5"></path><path d="M1042.51 436.133s1.27.566 2.68.707c1.41.141 1.85-.09 2.46-.177.81-.113 2.45.255 3.54.797l-.59 1.089-5.46-.052-3.72-2.293 1.09-.071Z" fill="#2CD4D9"></path><path d="M1036.91 441.41s.53-2.756 2.6-4.971c1.46-1.57 3.16-.395 4.03.423.63.595 1.4 1.102 2.63 1.333.84.159 2.29.201 3.48.046 1.9-.254 1.07-1.17 1.76-.628.73.57.52 1.936-.41 2.548-1.48.976-4.16 2.9-9.13 4.76-.31.117-.96.237-1.33 0l-3.63-3.511ZM1023.57 441.051c-.72.957-2.64.726-4.29-.515-1.66-1.241-2.42-3.024-1.7-3.982.71-.957 2.63-.727 4.29.513 1.65 1.243 2.41 3.026 1.7 3.984Z" fill="#0C022F"></path><path d="M1042.17 443.862c-.43.739-1.81.739-3.08 0-1.28-.739-1.97-1.936-1.54-2.675.42-.739 1.8-.739 3.08 0 1.27.739 1.96 1.936 1.54 2.675Z" fill="#724C3B"></path><path d="m1037.11 446.84 4.76-2.665-4.08-3.267-4.75 2.682 4.07 3.25Z" fill="#724C3B"></path><path d="M1009.29 463.38c-1.1 1.91-4.67 1.912-7.96.001-3.304-1.91-5.085-5.007-3.986-6.918 1.1-1.91 4.666-1.912 7.966 0 3.3 1.91 5.08 5.007 3.98 6.917Z" fill="#150773"></path><path d="M1037.58 445.088a2.184 2.184 0 0 1-.89 2.797l-28.68 16.624-3.76-6.912 26.87-14.66a4.62 4.62 0 0 1 2.22-.569c1.76 0 3.45 1 4.24 2.72Z" fill="url(#g)"></path><path d="M1043.19 440.419s-.87-.329-1.22-.305c-.35.025-1.02.115-1.52.153-.5.036-1.15-.153-1.07-.342.08-.187 1.07-.965 1.07-.965l2.84 1.13v.329" fill="#0C022F"></path><path d="M1046.42 441.983s-.03 1.346-1.32 1.906M1048.1 441.154s-.04 1.352-1.33 1.911M1049.49 440.356s-.04 1.352-1.33 1.911" stroke="#2CD4D9" stroke-width=".5"></path><path fill-rule="evenodd" clip-rule="evenodd" d="m1012.03 457.446 9.14-6.017-.02-.025-9.14 6.016.02.026Z" fill="#5333ED"></path><path d="m989.545 438.076.453-.422a2.452 2.452 0 0 0-.071.038l5.288-4.979 3.562-3.261 8.153-7.776c4.9-5.244 8.13-14.667 8.13-14.667l23 6.334.79 5.654c.27 1.991.69 3.959 1.13 5.921 1.38 6.247.26 10.553-.54 12.523-.07.24-1.37 2.862-2.34 3.501v.002l-15.94 10.471-9.12 5.989c.09-.422.86-4.641-3.89-8.866-.75-.666-1.6-1.387-2.5-2.128-.66-.539-1.34-1.087-2.03-1.637-3.34-2.647-7.166-4.548-8.958-5.444-1-.499-1.896-.968-3.003-1.284-.812-.232-1.469-.351-2.114.031Z" fill="#5333ED"></path><path d="m1012.04 457.404-5.18 3.399-9.315-4.704 8.105-9.689c.9.74 1.75 1.462 2.5 2.128 4.75 4.225 3.98 8.442 3.89 8.866Z" fill="#150773"></path><path d="m979.315 397.201-1.697-1.974c-.387 1.133.797 2.291.797 2.291l1.153 2.783c.536 4.029 3.069 7.989 3.069 7.989h.014c.275.506 3.757-.42 3.72-.546h.012s-1.702-8.775-1.763-9.077a548.257 548.257 0 0 0-1.025-4.337l-1.34-2.716c-.582 1.136.276 2.876.276 2.876l.614 3.45-1.168-3.143-2.106-2.675c-.225 1.771 1.11 3.187 1.11 3.187l.743 3.097-1.185-2.958-1.418-2.872c-.655 1.701.426 3.185.426 3.185l1.176 4.179-1.408-2.739Z" fill="#5B3427"></path><path d="M1026.56 362.954a3.867 3.867 0 0 0 3.86 3.871c2.13 0 3.86-1.733 3.86-3.871a3.864 3.864 0 0 0-3.86-3.869c-2.13 0-3.86 1.73-3.86 3.869Z" fill="#2CD4D9"></path><path d="M1039.2 367.492a2.145 2.145 0 0 0-2.2-1.552c-.02-.153-.04-.308-.09-.461-.41-1.416-7.02-3.658-8.43-3.248a2.673 2.673 0 0 0-1.82 3.306c.16.529.46.973.85 1.303-1.72 1.068-2.61 3.171-2.02 5.215a4.628 4.628 0 0 0 3.87 3.31c.01.262.04.524.11.787.02.051.05.095.06.143-.93.97-1.35 2.388-.95 3.774.6 2.065 2.76 3.861 6.67 2.27 1.98-.807 6.52-.941 5.92-3.006a3.846 3.846 0 0 0-.6-1.199c.36-.703.46-1.535.23-2.352a3.248 3.248 0 0 0-1.45-1.871c.37-.929.46-1.975.17-3.011a4.746 4.746 0 0 0-.73-1.436c.44-.532.62-1.261.41-1.972Z" fill="#DEECFF"></path><mask id="h" style="mask-type:alpha" maskUnits="userSpaceOnUse" x="1028" y="364" width="7" height="19"><path fill-rule="evenodd" clip-rule="evenodd" d="M1034.62 382.862h-5.92v-17.878h5.92v17.878Z" fill="#fff"></path></mask><g mask="url(#h)"><path d="M1029.35 364.986s2.32-.025 3.26 1.108c.94 1.134 1.26 4.482.99 6.267-.12.777-.13 2.989.41 4.449.68 1.814 1.13 4.976-.57 5.898-.43.233-1.75.132-1.75.132s-2.52-.453-2.96-2.549c-.32-1.512 2.78-5.326 2.6-5.365 0 0 .73-1.933.67-4.275-.06-2.341-.44-2.986-.83-3.242-.39-.256-.66-.525-1.67-.437 0 0 .43-.942-.15-1.986Z" fill="#A8CCF4"></path><path fill="#fff" d="M337.936 154.897h976.801v472.661H337.936z"></path></g><path d="M1025.55 370.591a3.975 3.975 0 1 1-7.91-.802 3.975 3.975 0 0 1 4.35-3.567 3.984 3.984 0 0 1 3.56 4.369Z" fill="#DEECFF"></path><path d="M1013.48 400.494s-3.86-2.849-4.77-.234c-6.06 17.458-22.447 7.09-22.447 7.09s-3.553 1.149-3.425 1.209c.042.037-.118.243-.079.285 12.871 14.883 27.121 6.298 32.461-3.118 3.62-6.374-1.74-5.232-1.74-5.232Z" fill="#724C3B"></path><path d="M1013.76 383.076s-.19.277-.36 1.261c-.58 3.399-2.24 11.38-4.68 15.635l6.89 4.95s3.8-5.501 5.76-9.846l-7.61-12Z" fill="#5333ED"></path><path d="M1008.55 400.775s.35.011.69.145c2.05.817 4.14 2.157 5.35 3.873.15.227.53.957.53.957l-.25.45s.41-.06.81-.514c.3-.336.78-1.224 1-1.658a.58.58 0 0 0 .03-.513c-.25-.566-1.01-1.931-2.96-3.188-1.92-1.236-3.63-1.669-4.36-1.806a.482.482 0 0 0-.52.265l-.93 1.881s.13.392.39.62l.22-.512Z" fill="#5333ED"></path><path d="m1035.2 388.913-15.02-8.688v.005c-.49-.338-1.22-.45-2.04-.322-.68.102-1.42.36-2.14.779-.75.434-1.37.974-1.8 1.538-.48.628-.68 1.424-.64 2.216l1.05 20.128c-.26 2.889 2.35 6.643 6.62 9.114 5.09 2.948 10.6 2.948 12.3-.003.34-.591.49-1.26.49-1.969l.01.003 3.6-19.213c.25-1.097-.74-2.612-2.43-3.588Z" fill="#5333ED"></path><path d="M1013.82 400.302s-.68-6.366-.27-9.268l.73-.425s-.17 7.977.13 10.177l-.59-.484Z" fill="#120667"></path><path d="M1029.54 385.945s1.73 1.662 1.9 3.641c0 0-1.58 2.898-7.47 2.651-5.88-.248-5.07-6.045-5.07-6.045s.25-2.085.35-2.616c0 0 2.22-.211 3.98.248l6.31 2.121Z" fill="#5B3427"></path><path d="M1022.19 388.952c.66 1.149 2.8 1.15 4.79 0 1.98-1.15 3.06-3.014 2.4-4.163-.67-1.152-2.81-1.152-4.8-.002-1.98 1.15-3.06 3.015-2.39 4.165ZM1022.19 383.063c.66 1.149 2.8 1.151 4.79 0 1.98-1.15 3.06-3.013 2.4-4.163-.67-1.15-2.81-1.15-4.8-.001-1.98 1.149-3.06 3.014-2.39 4.164Z" fill="#EBA87C"></path><path d="M1021.99 388.144v-5.749l7.58-2.653v5.7l-7.58 2.702Z" fill="#5B3427"></path><path d="M1022.19 388.952c.66 1.149 2.8 1.15 4.79 0 1.98-1.15 3.06-3.014 2.4-4.163-.67-1.152-2.81-1.152-4.8-.002-1.98 1.15-3.06 3.015-2.39 4.165Z" fill="#5B3427"></path><path d="M1022 387.722v-4.257l-.01.003v-5.75l7.58-2.651v5.699l-.02.006c.07 1.121-.73 2.484-2.3 3.548-1.41.954-3.12 1.289-4.52 1.253l-.05 3.79c-.17-.008-.38-.228-.53-.507-.23-.443-.15-1.134-.15-1.134Z" fill="#351812"></path><path d="M1019.46 382.724c1.03 1.79 4.37 1.791 7.46.001 2.16-1.249 3.25-3.221 3.59-4.799.06-.301-.34-.224-.36-.502-.03-.354.5-1.18.5-1.18-1.03-1.791-4.37-1.791-7.46-.001-3.09 1.789-4.76 4.692-3.73 6.481Z" fill="#724C3B"></path><path d="m1030.8 369.118-4.23-1.944-7.2.123s-3.12 6.801 0 15.243l10.77-5.193.66-8.229Z" fill="#724C3B"></path><path d="M1031.87 375.855c.14.957-.35 2.219-1.1 2.822-.76.603-1.48.318-1.63-.639-.14-.957.35-2.219 1.11-2.821.75-.604 1.48-.318 1.62.638ZM1039.61 409.872l-8.51-10.309c1.93 37.926-42.683 19.498-42.683 19.498s-1.337 4.092-1.198 4.101c42.571 25.023 52.391-13.29 52.391-13.29Z" fill="#724C3B"></path><path d="M1028.88 414.316s1.99-11.392 1.42-16.381l6.3-7.88s8.01 7.516 1.42 26.334l-9.14-2.073Z" fill="#5333ED"></path><path d="M1029.26 411.984s2.22-3.407 2.09-8.761l-.66 2.208-2.22 6.809s.23-.41.79-.256Z" fill="#120667"></path><path d="M1028.46 412.24s.25-.456.8-.255l-.1.621c1.26.595 4.28 1.754 9.38 2.221l.15-.471s.33.158.33.511l-1.35 3.746s-6.95-.34-10.14-3.357l.93-3.016Z" fill="#5333ED"></path><path d="M1029.57 365.51a2.268 2.268 0 0 1-1.54 2.812 2.272 2.272 0 0 1-2.81-1.55 2.281 2.281 0 0 1 1.55-2.812 2.26 2.26 0 0 1 2.8 1.55Z" fill="#120667"></path><path d="M1031.94 371.876c-.01-.173.32-2.964-.48-4.14-.8-1.176-2.43-.678-2.43-.678s-1.07-2.54-3.25-1.853c-.15-.476-4.62-.501-6.31 1.049-1.35 1.238 2.88 3.519 3.31 5.307.51 2.185 4.79 3.391 6.4 2.57.04-.018.07-.013.11-.01-.15.224-.95 1.467-.46 2.108l.84.214s-.09-1.216 1.19-1.573c0 0 .2-.058.47.054 0 0 .63-1.418.61-3.048ZM1032.5 364.809a2.399 2.399 0 0 0 2.4 2.404c1.32 0 2.39-1.076 2.39-2.404a2.397 2.397 0 0 0-2.39-2.403c-1.33 0-2.4 1.076-2.4 2.403ZM1038 379.424c0 .927.75 1.679 1.67 1.679a1.678 1.678 0 1 0 0-3.359c-.92 0-1.67.752-1.67 1.68Z" fill="#DEECFF"></path><path d="M1034.72 380.997a2.476 2.476 0 0 0 2.47 2.474c1.36 0 2.46-1.109 2.46-2.474 0-1.366-1.1-2.475-2.46-2.475a2.476 2.476 0 0 0-2.47 2.475Z" fill="#DEECFF"></path><path d="M984.407 409.261c1.339.317 2.373-1.055 1.816-2.316l-.004-.009h.016s.55-3.41.178-4.489c-.234-.67-2.204-2.952-2.204-2.952l-1.641-1.088s-.075 1.325 1.326 2.61l.366.938s-1.626.877-2.273 2.724c-.335.552-.414 1.391-.207 2.32l.988 1.875 1.639.387ZM975.735 414.112s4.912 1.647 5.213 1.782c.3.134 7.689 3.233 7.689 3.233l-1.22 4.105s-4.316.124-8.163-1.892l-2.7-.543s-.836.532-2.356.033l1.944-.997 3.51.269-3.879-1.336s-2.283.275-3.363-1.35l3.208.075 3.314.785-3.164-1.259s-1.955.754-3.363-.536l3.531-.654 3.466.914-4.186-1.595s-1.773.141-2.404-1.073l2.923.039Z" fill="#724C3B"></path><path d="M958.453 503.319c-12.283-7.085-32.197-7.085-44.478-.002-12.281 7.082-12.279 18.567.004 25.651 12.284 7.084 32.198 7.085 44.48.003 12.281-7.083 12.278-18.568-.006-25.652Z" fill="#FFD141"></path><path d="M904.836 517.359c-.216.738.019 5.36-.039 6.106-.379 4.91 2.683 9.891 9.183 13.641 12.283 7.084 32.198 7.085 44.479.003 5.877-3.39 8.941-7.788 9.192-12.23.018-.323-.096-7.187-.096-7.187s-.194 1.035-.33 1.496c-1.051 3.583-3.973 7.019-8.766 9.783-12.281 7.082-32.196 7.081-44.479-.003-5.604-3.232-8.653-7.381-9.144-11.609Z" fill="#FFB217"></path><mask id="i" style="mask-type:alpha" maskUnits="userSpaceOnUse" x="904" y="517" width="64" height="26"><path fill-rule="evenodd" clip-rule="evenodd" d="M904.836 517.359c-.216.738.019 5.36-.039 6.106-.379 4.91 2.683 9.891 9.183 13.641 12.283 7.084 32.198 7.085 44.479.003 5.877-3.39 8.941-7.788 9.192-12.23.018-.323-.096-7.187-.096-7.187s-.194 1.035-.33 1.496c-1.051 3.583-3.973 7.019-8.766 9.783-12.281 7.082-32.196 7.081-44.479-.003-5.604-3.232-8.653-7.381-9.144-11.609Z" fill="#fff"></path></mask><g mask="url(#i)" stroke="#B7835F" stroke-width=".5" stroke-linejoin="round"><path d="m965.948 532.391-.056-19.547M946.161 544.738l-.056-19.547M956.054 538.92l-.056-19.547M936.268 547.184l-.057-19.546M921.428 546.446l-.057-19.547M911.534 539.311l-.057-19.547M961.001 537.363l-.057-19.547M941.214 545.628l-.056-19.547M926.374 544.889l-.056-19.547M951.107 543.893l-.056-19.547M931.32 549.074l-.056-19.546M916.48 544.157l-.056-19.547M906.588 537.022l-.057-19.546M963.474 535.634l-.056-19.548M943.687 547.981l-.056-19.547M953.581 542.162l-.056-19.546M933.794 546.825l-.056-19.546M918.955 546.087l-.057-19.547M909.061 538.951l-.056-19.546M958.527 540.606l-.057-19.547M938.74 548.87l-.056-19.546M923.9 548.132l-.056-19.547M948.634 547.136l-.056-19.547M928.848 549.568l-.057-19.547M914.008 544.65l-.057-19.546"></path></g><path d="M951.983 506.702c-8.672-5.002-22.73-5.002-31.4-.001-8.669 4.999-8.668 13.107.003 18.109 8.671 5 22.73 5.001 31.4.002 8.67-5 8.668-13.109-.003-18.11" stroke="#B7835F" stroke-width=".5" stroke-linejoin="round"></path><path d="M1150.79 487.341c-12.26-7.076-32.14-7.077-44.4-.002-12.26 7.075-12.26 18.546 0 25.621 12.26 7.076 32.14 7.077 44.4.004 12.26-7.075 12.26-18.547 0-25.623Z" fill="#FFD141"></path><path d="M1097.26 501.365c-.21.737.02 5.354-.03 6.099-.38 4.904 2.67 9.88 9.16 13.624 12.26 7.075 32.14 7.077 44.4.004 5.87-3.387 8.93-7.781 9.18-12.217.02-.322-.1-7.177-.1-7.177s-.19 1.032-.33 1.494c-1.05 3.578-3.96 7.01-8.75 9.772-12.26 7.073-32.14 7.072-44.4-.004-5.59-3.228-8.64-7.371-9.13-11.595Z" fill="#FFB217"></path><mask id="j" style="mask-type:alpha" maskUnits="userSpaceOnUse" x="1097" y="501" width="63" height="26"><path fill-rule="evenodd" clip-rule="evenodd" d="M1097.26 501.365c-.21.737.02 5.354-.03 6.099-.38 4.904 2.67 9.88 9.16 13.624 12.26 7.075 32.14 7.077 44.4.004 5.87-3.387 8.93-7.781 9.18-12.217.02-.322-.1-7.177-.1-7.177s-.19 1.032-.33 1.494c-1.05 3.578-3.96 7.01-8.75 9.772-12.26 7.073-32.14 7.072-44.4-.004-5.59-3.228-8.64-7.371-9.13-11.595Z" fill="#fff"></path></mask><g mask="url(#j)" stroke="#B7835F" stroke-width=".5" stroke-linejoin="round"><path d="m1158.27 516.378-.06-19.523M1138.52 528.711l-.06-19.524M1148.39 522.9l-.05-19.523M1128.64 531.155l-.06-19.523M1113.83 530.417l-.06-19.523M1103.95 523.29l-.06-19.523M1153.33 521.345l-.06-19.523M1133.58 529.6l-.06-19.523M1118.76 528.862l-.05-19.523M1143.45 527.866l-.05-19.523M1123.7 533.043l-.05-19.523M1108.89 528.131l-.06-19.523M1099.01 521.005l-.05-19.523M1155.8 519.617l-.06-19.523M1136.05 531.949l-.06-19.523M1145.92 526.139l-.05-19.523M1126.17 530.796l-.06-19.523M1111.36 530.057l-.06-19.523M1101.48 522.932l-.05-19.523M1150.86 524.584l-.06-19.523M1131.11 532.839l-.06-19.523M1116.3 532.101l-.06-19.523M1140.99 531.105l-.06-19.523M1121.23 533.536l-.05-19.525M1106.42 528.624l-.06-19.524"></path></g><path d="M1144.33 490.721c-8.66-4.996-22.69-4.997-31.35-.001-8.65 4.993-8.65 13.091.01 18.086 8.65 4.995 22.69 4.996 31.34.002 8.65-4.994 8.65-13.092 0-18.087" stroke="#B7835F" stroke-width=".5" stroke-linejoin="round"></path><path d="M1195.16 301.602c-12.28-7.085-32.2-7.085-44.48-.002-12.28 7.082-12.28 18.567.01 25.651 12.28 7.085 32.19 7.086 44.47.004 12.29-7.084 12.28-18.568 0-25.653Z" fill="#FFD141"></path><path d="M1141.54 315.642c-.21.739.02 5.36-.04 6.107-.38 4.909 2.68 9.891 9.19 13.64 12.28 7.085 32.19 7.086 44.47.004 5.88-3.391 8.95-7.789 9.2-12.23.02-.324-.1-7.188-.1-7.188s-.19 1.035-.33 1.496c-1.05 3.584-3.97 7.019-8.77 9.784-12.28 7.082-32.19 7.081-44.47-.004-5.61-3.231-8.66-7.38-9.15-11.609Z" fill="#FFB217"></path><mask id="k" style="mask-type:alpha" maskUnits="userSpaceOnUse" x="1141" y="315" width="64" height="26"><path fill-rule="evenodd" clip-rule="evenodd" d="M1141.54 315.642c-.21.739.02 5.36-.04 6.107-.38 4.909 2.68 9.891 9.19 13.64 12.28 7.085 32.19 7.086 44.47.004 5.88-3.391 8.95-7.789 9.2-12.23.02-.324-.1-7.188-.1-7.188s-.19 1.035-.33 1.496c-1.05 3.584-3.97 7.019-8.77 9.784-12.28 7.082-32.19 7.081-44.47-.004-5.61-3.231-8.66-7.38-9.15-11.609Z" fill="#fff"></path></mask><g mask="url(#k)" stroke="#B7835F" stroke-width=".5" stroke-linejoin="round"><path d="m1202.65 330.674-.05-19.546M1182.87 343.022l-.06-19.547M1192.76 337.203l-.06-19.546M1172.97 345.468l-.05-19.547M1158.13 344.729l-.05-19.546M1148.24 337.595l-.06-19.548M1197.71 335.646l-.06-19.546M1177.92 343.911l-.06-19.546M1163.08 343.172l-.06-19.546M1187.81 342.176l-.05-19.546M1168.03 347.358l-.06-19.547M1153.19 342.44l-.06-19.547M1143.29 335.306l-.05-19.547M1200.18 333.917l-.06-19.548M1180.39 346.264l-.05-19.546M1190.29 340.446l-.06-19.547M1170.5 345.109l-.06-19.547M1155.66 344.37l-.06-19.547M1145.77 337.235l-.06-19.547M1195.23 338.889l-.05-19.546M1175.45 347.154l-.06-19.547M1160.61 346.415l-.06-19.546M1185.34 345.419l-.06-19.547M1165.55 347.851l-.05-19.546M1150.71 342.934l-.05-19.547"></path></g><path d="M1188.69 304.985c-8.67-5.001-22.73-5.001-31.4-.001-8.67 4.999-8.67 13.108 0 18.109 8.67 5 22.73 5.001 31.4.002 8.67-5.001 8.67-13.108 0-18.11" stroke="#B7835F" stroke-width=".5" stroke-linejoin="round"></path><path d="M963.97 348.174c-5.237-12.973-20.778-25.098-34.712-27.082-13.934-1.985-20.984 6.922-15.748 19.895 5.236 12.972 20.777 25.099 34.711 27.084 13.934 1.984 20.985-6.924 15.749-19.897Z" fill="#FFD141"></path><path d="M913.503 326.417c-.622.441-3.277 4.168-3.78 4.712-3.311 3.576-3.981 9.303-1.21 16.168 5.236 12.973 20.777 25.099 34.71 27.084 6.67.949 11.762-.596 14.686-3.888.212-.238 4.338-5.631 4.338-5.631s-.787.683-1.176.959c-3.021 2.139-7.411 3.024-12.85 2.25-13.934-1.985-29.475-14.112-34.711-27.084-2.389-5.919-2.22-10.991-.007-14.57Z" fill="#FFB217"></path><mask id="l" style="mask-type:alpha" maskUnits="userSpaceOnUse" x="906" y="326" width="57" height="49"><path fill-rule="evenodd" clip-rule="evenodd" d="M913.503 326.417c-.622.441-3.277 4.168-3.78 4.712-3.311 3.576-3.981 9.303-1.21 16.168 5.236 12.973 20.777 25.099 34.71 27.084 6.67.949 11.762-.596 14.686-3.888.212-.238 4.338-5.631 4.338-5.631s-.787.683-1.176.959c-3.021 2.139-7.411 3.024-12.85 2.25-13.934-1.985-29.475-14.112-34.711-27.084-2.389-5.919-2.22-10.991-.007-14.57Z" fill="#fff"></path></mask><g mask="url(#l)" stroke="#B7835F" stroke-width=".5" stroke-linejoin="round"><path d="m951.966 375.282 11.959-15.193M928.942 372.809l11.958-15.192M940.236 374.321l11.958-15.192M919.718 368.683l11.959-15.192M908.591 359.075l11.959-15.192M905.251 347.518l11.959-15.192M945.052 376.126l11.959-15.193M924.535 370.488l11.958-15.193M913.407 360.879l11.958-15.192M933.321 375.165l11.959-15.192M914.697 367.138l11.959-15.193M906.136 354.288l11.958-15.193M902.795 342.731l11.959-15.191M948.044 376.29l11.959-15.192M925.021 373.818l11.958-15.192M936.314 375.33l11.959-15.193M918.008 366.899l11.959-15.193M906.881 357.29l11.959-15.192M903.541 345.734l11.959-15.193M941.131 377.134l11.959-15.192M920.613 371.497l11.959-15.193M909.485 361.888l11.959-15.192M929.4 376.174l11.958-15.191M912.464 366.014l11.959-15.193M903.902 353.165l11.959-15.193"></path></g><path d="M956.841 346.858c-3.696-9.158-14.667-17.717-24.504-19.119-9.836-1.401-14.814 4.887-11.117 14.045 3.697 9.158 14.667 17.718 24.503 19.119 9.838 1.401 14.815-4.887 11.118-14.045" stroke="#B7835F" stroke-width=".5" stroke-linejoin="round"></path><path d="M1068.9 193.68c-13.59 4.528-26.95 19.611-29.84 33.689-2.89 14.077 5.78 21.82 19.38 17.292 13.58-4.527 26.94-19.611 29.83-33.688 2.89-14.079-5.78-21.821-19.37-17.293Z" fill="#FFD141"></path><path d="M1043.53 243.76c.42.661 4.06 3.6 4.59 4.146 3.45 3.598 9.27 4.638 16.46 2.243 13.59-4.528 26.95-19.611 29.84-33.689 1.38-6.739.12-12.025-3.07-15.209-.23-.232-5.49-4.774-5.49-4.774s.65.844.91 1.259c2 3.212 2.63 7.742 1.5 13.237-2.89 14.077-16.25 29.161-29.83 33.688-6.21 2.067-11.38 1.577-14.91-.901Z" fill="#FFB217"></path><mask id="m" style="mask-type:alpha" maskUnits="userSpaceOnUse" x="1043" y="196" width="52" height="56"><path fill-rule="evenodd" clip-rule="evenodd" d="M1043.53 243.76c.42.661 4.06 3.6 4.59 4.146 3.45 3.598 9.27 4.638 16.46 2.243 13.59-4.528 26.95-19.611 29.84-33.689 1.38-6.739.12-12.025-3.07-15.209-.23-.232-5.49-4.774-5.49-4.774s.65.844.91 1.259c2 3.212 2.63 7.742 1.5 13.237-2.89 14.077-16.25 29.161-29.83 33.688-6.21 2.067-11.38 1.577-14.91-.901Z" fill="#fff"></path></mask><g mask="url(#m)" stroke="#B7835F" stroke-width=".5" stroke-linejoin="round"><path d="m1095.88 207.605-14.8-13.136M1091.93 230.918l-14.8-13.136M1094.17 219.501l-14.79-13.136M1087.14 240.062l-14.8-13.137M1076.63 250.804l-14.8-13.136M1064.61 253.487l-14.8-13.136M1096.32 214.705l-14.8-13.136M1089.29 235.265l-14.8-13.136M1078.77 246.008l-14.8-13.136M1094.61 226.602l-14.8-13.137M1085.25 245.083l-14.8-13.136M1071.58 253.008l-14.8-13.137M1059.56 255.691l-14.8-13.136M1096.67 211.665l-14.8-13.136M1092.72 234.978l-14.8-13.136M1094.96 223.561l-14.8-13.136M1085.21 241.693l-14.8-13.137M1074.7 252.435l-14.8-13.136M1062.67 255.118l-14.8-13.136M1097.11 218.765l-14.8-13.136M1090.07 239.325l-14.79-13.136M1079.56 250.068l-14.8-13.138M1095.4 230.662l-14.8-13.138M1083.97 247.288l-14.8-13.136M1070.3 255.213l-14.8-13.136"></path></g><path d="M1067.11 200.863c-9.59 3.196-19.02 13.844-21.06 23.783-2.04 9.938 4.08 15.403 13.68 12.207 9.59-3.196 19.02-13.845 21.06-23.782 2.04-9.939-4.08-15.405-13.68-12.208" stroke="#B7835F" stroke-width=".5" stroke-linejoin="round"></path><path d="M1047.43 546.881c-12.28-7.094-32.2-7.096-44.48-.003-12.279 7.092-12.276 18.594.01 25.688 12.28 7.094 32.19 7.095 44.48.003 12.28-7.093 12.27-18.594-.01-25.688Z" fill="#FFD141"></path><path d="M993.814 560.94c-.217.739.018 5.368-.04 6.114-.379 4.917 2.683 9.906 9.186 13.66 12.28 7.093 32.19 7.096 44.48.003 5.87-3.394 8.94-7.799 9.19-12.247.02-.323-.1-7.196-.1-7.196s-.19 1.035-.33 1.498c-1.05 3.587-3.97 7.028-8.76 9.797-12.29 7.092-32.2 7.091-44.48-.003-5.607-3.238-8.655-7.392-9.146-11.626Z" fill="#FFB217"></path><mask id="n" style="mask-type:alpha" maskUnits="userSpaceOnUse" x="993" y="560" width="64" height="27"><path fill-rule="evenodd" clip-rule="evenodd" d="M993.814 560.94c-.217.739.018 5.368-.04 6.114-.379 4.917 2.683 9.906 9.186 13.66 12.28 7.093 32.19 7.096 44.48.003 5.87-3.394 8.94-7.799 9.19-12.247.02-.323-.1-7.196-.1-7.196s-.19 1.035-.33 1.498c-1.05 3.587-3.97 7.028-8.76 9.797-12.29 7.092-32.2 7.091-44.48-.003-5.607-3.238-8.655-7.392-9.146-11.626Z" fill="#fff"></path></mask><g mask="url(#n)" stroke="#B7835F" stroke-width=".5" stroke-linejoin="round"><path d="m1054.93 575.992-.06-19.573M1035.14 588.356l-.06-19.573M1045.03 582.531l-.06-19.573M1025.24 590.807l-.05-19.573M1010.4 590.066l-.05-19.573M1000.51 582.922l-.05-19.573M1049.98 580.972l-.06-19.573M1030.19 589.248l-.06-19.573M1015.35 588.508l-.05-19.573M1040.09 587.51l-.06-19.573M1020.3 592.699l-.06-19.573M1005.46 587.775l-.06-19.573M995.565 580.63l-.057-19.573M1052.45 579.239l-.06-19.573M1032.66 591.603l-.05-19.573M1042.56 585.778l-.06-19.574M1022.77 590.447l-.06-19.573M1007.93 589.706l-.05-19.573M998.038 582.562l-.056-19.573M1047.51 584.219l-.06-19.573M1027.72 592.495l-.06-19.573M1012.88 591.754l-.06-19.573M1037.61 590.757l-.06-19.573M1017.82 593.193l-.05-19.574M1002.98 588.268l-.05-19.573"></path></g><path d="M1040.96 550.269c-8.67-5.008-22.73-5.009-31.4-.002-8.67 5.007-8.67 13.125 0 18.133 8.68 5.009 22.73 5.01 31.4.003 8.67-5.007 8.67-13.126 0-18.134" stroke="#B7835F" stroke-width=".5" stroke-linejoin="round"></path><path d="M957.447 495.633c-12.283-7.085-32.197-7.086-44.478-.002-12.281 7.082-12.279 18.568.004 25.652 12.283 7.083 32.198 7.085 44.478.003 12.282-7.084 12.28-18.569-.004-25.653Z" fill="#FFD141"></path><path d="M903.83 509.673c-.216.738.018 5.36-.039 6.106-.379 4.911 2.681 9.892 9.182 13.641 12.283 7.084 32.198 7.085 44.478.003 5.878-3.39 8.943-7.789 9.194-12.23.018-.322-.096-7.186-.096-7.186s-.194 1.033-.33 1.496c-1.051 3.582-3.974 7.018-8.768 9.783-12.28 7.082-32.195 7.08-44.478-.003-5.605-3.233-8.652-7.382-9.143-11.61Z" fill="#FFB217"></path><mask id="o" style="mask-type:alpha" maskUnits="userSpaceOnUse" x="903" y="509" width="64" height="26"><path fill-rule="evenodd" clip-rule="evenodd" d="M903.83 509.673c-.216.738.018 5.36-.039 6.106-.379 4.911 2.681 9.892 9.182 13.641 12.283 7.084 32.198 7.085 44.478.003 5.878-3.39 8.943-7.789 9.194-12.23.018-.322-.096-7.186-.096-7.186s-.194 1.033-.33 1.496c-1.051 3.582-3.974 7.018-8.768 9.783-12.28 7.082-32.195 7.08-44.478-.003-5.605-3.233-8.652-7.382-9.143-11.61Z" fill="#fff"></path></mask><g mask="url(#o)" stroke="#B7835F" stroke-width=".5" stroke-linejoin="round"><path d="m964.941 524.705-.057-19.547M945.154 537.052l-.057-19.547M955.048 531.234l-.057-19.547M935.261 539.499l-.056-19.546M920.421 538.76l-.056-19.547M910.527 531.625l-.056-19.546M959.995 529.678l-.057-19.547M940.208 537.943l-.056-19.547M925.367 537.203l-.056-19.547M950.101 536.207l-.056-19.547M930.314 541.389l-.056-19.546M915.475 536.471l-.057-19.546M905.581 529.336l-.057-19.546M962.468 527.947l-.057-19.546M942.681 540.295l-.056-19.547M952.574 534.476l-.057-19.546M932.787 539.139l-.056-19.546M917.947 538.4l-.056-19.546M908.055 531.266l-.057-19.546M957.521 532.92l-.057-19.547M937.734 541.185l-.057-19.546M922.895 540.445l-.057-19.546M947.628 539.449l-.057-19.546M927.841 541.882l-.056-19.547M913.001 536.964l-.056-19.547"></path></g><path d="M950.976 499.017c-8.672-5.002-22.73-5.003-31.4-.003-8.67 5.001-8.667 13.108.004 18.109 8.671 5.002 22.73 5.003 31.398.003 8.67-5.001 8.669-13.109-.002-18.109" stroke="#B7835F" stroke-width=".5" stroke-linejoin="round"></path><path d="M1152.67 479.54c-12.26-7.085-32.14-7.086-44.4-.003-12.26 7.083-12.26 18.567 0 25.653 12.27 7.083 32.15 7.085 44.41.002 12.25-7.083 12.25-18.568-.01-25.652Z" fill="#FFD141"></path><path d="M1099.15 493.579c-.22.739.02 5.361-.04 6.107-.38 4.909 2.68 9.891 9.16 13.64 12.27 7.085 32.15 7.086 44.41.004 5.86-3.391 8.92-7.789 9.17-12.23.02-.324-.09-7.188-.09-7.188s-.2 1.035-.33 1.497c-1.05 3.583-3.97 7.018-8.75 9.783-12.26 7.083-32.14 7.081-44.41-.002-5.59-3.233-8.63-7.382-9.12-11.611Z" fill="#FFB217"></path><mask id="p" style="mask-type:alpha" maskUnits="userSpaceOnUse" x="1099" y="493" width="63" height="26"><path fill-rule="evenodd" clip-rule="evenodd" d="M1099.15 493.579c-.22.739.02 5.361-.04 6.107-.38 4.909 2.68 9.891 9.16 13.64 12.27 7.085 32.15 7.086 44.41.004 5.86-3.391 8.92-7.789 9.17-12.23.02-.324-.09-7.188-.09-7.188s-.2 1.035-.33 1.497c-1.05 3.583-3.97 7.018-8.75 9.783-12.26 7.083-32.14 7.081-44.41-.002-5.59-3.233-8.63-7.382-9.12-11.611Z" fill="#fff"></path></mask><g mask="url(#p)" stroke="#B7835F" stroke-width=".5" stroke-linejoin="round"><path d="m1160.15 508.611-.05-19.546M1140.4 520.959l-.06-19.547M1150.28 515.14l-.06-19.546M1130.52 523.405l-.05-19.547M1115.71 522.666l-.06-19.546M1105.83 515.532l-.05-19.547M1155.21 513.583l-.05-19.546M1135.46 521.849l-.06-19.547M1120.65 521.109l-.06-19.546M1145.34 520.113l-.06-19.546M1125.58 525.295l-.05-19.547M1110.77 520.377l-.05-19.546M1100.9 513.243l-.06-19.547M1157.68 511.854l-.05-19.546M1137.93 524.201l-.06-19.546M1147.81 518.383l-.06-19.547M1128.05 523.046l-.05-19.547M1113.24 522.307l-.06-19.546M1103.36 515.173l-.05-19.547M1152.74 516.826l-.05-19.546M1132.99 525.091l-.05-19.547M1118.18 524.352l-.06-19.546M1142.87 523.356l-.06-19.546M1123.12 525.789l-.06-19.547M1108.3 520.871l-.05-19.547"></path></g><path d="M1146.21 482.922c-8.66-5-22.69-5.001-31.34-.001-8.66 5-8.66 13.108 0 18.109 8.66 5 22.69 5.002 31.34.002 8.66-5 8.66-13.108 0-18.11" stroke="#B7835F" stroke-width=".5" stroke-linejoin="round"></path><path d="M1149.19 469.595c-12.29-7.085-32.2-7.086-44.48-.002-12.28 7.083-12.28 18.568 0 25.652 12.29 7.084 32.2 7.085 44.48.003 12.28-7.083 12.28-18.569 0-25.653Z" fill="#FFD141"></path><path d="M1095.57 483.636c-.22.737.02 5.36-.04 6.106-.38 4.91 2.68 9.891 9.18 13.641 12.29 7.083 32.2 7.085 44.48.002 5.88-3.389 8.94-7.789 9.19-12.23.02-.322-.09-7.186-.09-7.186s-.2 1.033-.33 1.496c-1.05 3.582-3.98 7.018-8.77 9.783-12.28 7.082-32.19 7.081-44.48-.003-5.6-3.233-8.65-7.382-9.14-11.609Z" fill="#FFB217"></path><mask id="q" style="mask-type:alpha" maskUnits="userSpaceOnUse" x="1095" y="483" width="64" height="26"><path fill-rule="evenodd" clip-rule="evenodd" d="M1095.57 483.636c-.22.737.02 5.36-.04 6.106-.38 4.91 2.68 9.891 9.18 13.641 12.29 7.083 32.2 7.085 44.48.002 5.88-3.389 8.94-7.789 9.19-12.23.02-.322-.09-7.186-.09-7.186s-.2 1.033-.33 1.496c-1.05 3.582-3.98 7.018-8.77 9.783-12.28 7.082-32.19 7.081-44.48-.003-5.6-3.233-8.65-7.382-9.14-11.609Z" fill="#fff"></path></mask><g mask="url(#q)" stroke="#B7835F" stroke-width=".5" stroke-linejoin="round"><path d="m1156.68 498.667-.06-19.547M1136.89 511.014l-.05-19.547M1146.79 505.197l-.06-19.547M1127 513.461l-.06-19.546M1112.16 512.723l-.06-19.548M1102.27 505.587l-.06-19.546M1151.73 503.64l-.05-19.547M1131.95 511.905l-.06-19.547M1117.11 511.166l-.06-19.547M1141.84 510.169l-.06-19.547M1122.05 515.351l-.05-19.546M1107.21 510.433l-.05-19.546M1097.32 503.299l-.06-19.547M1154.21 501.909l-.06-19.546M1134.42 514.257l-.06-19.547M1144.31 508.439l-.05-19.546M1124.53 513.102l-.06-19.546M1109.69 512.362l-.06-19.546M1099.79 505.228l-.05-19.546M1149.26 506.883l-.06-19.547M1129.47 515.147l-.05-19.546M1114.63 514.409l-.05-19.548M1139.37 513.412l-.06-19.547M1119.58 515.844l-.06-19.547M1104.74 510.926l-.06-19.546"></path></g><path d="M1142.71 472.979c-8.67-5.002-22.72-5.003-31.39-.003-8.67 5.001-8.67 13.108 0 18.11 8.67 5.001 22.73 5.002 31.4.002 8.67-5.001 8.67-13.108-.01-18.109" stroke="#B7835F" stroke-width=".5" stroke-linejoin="round"></path><g clip-path="url(#r)"><path d="M0 0h1600v800H0V0Z" fill="url(#s)"></path><path d="m1254.01-19.095 346.22 10.353v811.78l-1640.133 6.864-.432-87.432L1254.01-19.095Z" fill="url(#t)"></path><path d="m240.611 689.152 3.57 122.019-207.365-4.696 203.795-117.323Z" fill="url(#u)"></path><path fill-rule="evenodd" clip-rule="evenodd" d="M1139-103.224c0-46.702 28.48-68.225 63.56-48.029l166.43 95.823c35.08 20.195 63.56 74.51 63.56 121.212v169.239c0 46.705-28.48 68.224-63.56 48.029l-166.43-95.824c-35.08-20.195-63.56-74.507-63.56-121.211v-169.239Z" fill="#fff" fill-opacity=".1"></path><path fill-rule="evenodd" clip-rule="evenodd" d="M1198 610.071c0-16.983 10.36-24.81 23.11-17.466l60.53 34.847c12.75 7.344 23.11 27.096 23.11 44.079v61.544c0 16.985-10.36 24.81-23.11 17.466l-60.53-34.846c-12.75-7.345-23.11-27.095-23.11-44.08v-61.544ZM1261 195.829c0-16.983 10.36-24.81 23.11-17.466l60.53 34.847c12.75 7.344 23.11 27.096 23.11 44.079v61.544c0 16.985-10.36 24.81-23.11 17.466l-60.53-34.847c-12.75-7.344-23.11-27.094-23.11-44.079v-61.544Z" fill="#fff" fill-opacity=".15"></path><path fill-rule="evenodd" clip-rule="evenodd" d="M1270.08 567.254c0-42.716 26.04-62.402 58.13-43.93l152.23 87.645c32.08 18.47 58.13 68.15 58.13 110.866v154.794c0 42.718-26.05 62.4-58.13 43.93l-152.23-87.645c-32.09-18.472-58.13-68.148-58.13-110.866V567.254Z" fill="#fff" fill-opacity=".25"></path><path fill-rule="evenodd" clip-rule="evenodd" d="M109.068 459.067c0-17.561 10.708-25.654 23.897-18.06l62.583 36.031c13.189 7.593 23.898 28.017 23.898 45.577v63.636c0 17.561-10.709 25.653-23.898 18.06l-62.583-36.032c-13.189-7.593-23.897-28.015-23.897-45.577v-63.635Z" fill="#fff" fill-opacity=".12"></path><path fill-rule="evenodd" clip-rule="evenodd" d="M251.661 79.72c0-60.513 36.899-130.89 82.351-157.058L549.67-201.501c45.448-26.166 82.351 1.721 82.351 62.233V80.019c0 60.516-36.903 130.891-82.351 157.057L334.012 361.239c-45.452 26.168-82.351-1.717-82.351-62.233V79.719Z" fill="#fff" fill-opacity=".25"></path><path fill-rule="evenodd" clip-rule="evenodd" d="M576 203.042c0-21.538 13.133-46.588 29.311-55.902l76.759-44.193c16.177-9.313 29.311.613 29.311 22.151v78.051c0 21.539-13.134 46.588-29.311 55.901l-76.759 44.193c-16.178 9.314-29.311-.611-29.311-22.15v-78.051Z" fill="#fff" fill-opacity=".1"></path><path fill-rule="evenodd" clip-rule="evenodd" d="M-29.265 194.463c0-21.241 12.952-45.946 28.907-55.132l75.703-43.584c15.954-9.186 28.907.603 28.907 21.845v76.976c0 21.244-12.953 45.947-28.907 55.132L-.358 293.285c-15.955 9.186-28.907-.602-28.907-21.845v-76.977Z" fill="#fff" fill-opacity=".43"></path></g></g><defs><linearGradient id="b" x1="825.677" y1="388.843" x2="807.264" y2="467.906" gradientUnits="userSpaceOnUse"><stop stop-color="#0A54C9" stop-opacity=".27"></stop><stop offset=".49" stop-color="#267FD1" stop-opacity=".07"></stop><stop offset="1" stop-color="#2F8DD3" stop-opacity=".01"></stop></linearGradient><linearGradient id="c" x1="764.377" y1="431.152" x2="748.272" y2="498.751" gradientUnits="userSpaceOnUse"><stop stop-color="#0A54C9" stop-opacity=".27"></stop><stop offset=".49" stop-color="#267FD1" stop-opacity=".07"></stop><stop offset="1" stop-color="#2F8DD3" stop-opacity=".01"></stop></linearGradient><linearGradient id="d" x1="854.966" y1="473.673" x2="837.86" y2="542.638" gradientUnits="userSpaceOnUse"><stop stop-color="#0A54C9" stop-opacity=".27"></stop><stop offset=".49" stop-color="#267FD1" stop-opacity=".07"></stop><stop offset="1" stop-color="#2F8DD3" stop-opacity=".01"></stop></linearGradient><linearGradient id="e" x1="963.096" y1="421.175" x2="946.695" y2="482.422" gradientUnits="userSpaceOnUse"><stop stop-color="#0A54C9" stop-opacity=".27"></stop><stop offset=".49" stop-color="#267FD1" stop-opacity=".07"></stop><stop offset="1" stop-color="#2F8DD3" stop-opacity=".01"></stop></linearGradient><linearGradient id="f" x1="998.161" y1="455.986" x2="1007.87" y2="437.453" gradientUnits="userSpaceOnUse"><stop stop-color="#150773"></stop><stop offset="1" stop-color="#0C022F"></stop></linearGradient><linearGradient id="g" x1="1017.19" y1="465.724" x2="1025.82" y2="451.477" gradientUnits="userSpaceOnUse"><stop stop-color="#150773"></stop><stop offset="1" stop-color="#0C022F"></stop></linearGradient><linearGradient id="t" x1="165.408" y1="198.046" x2="913.082" y2="796.53" gradientUnits="userSpaceOnUse"><stop stop-color="#120667" stop-opacity=".16"></stop><stop offset="1" stop-color="#9B31F7" stop-opacity=".16"></stop></linearGradient><linearGradient id="u" x1="242.463" y1="282.067" x2="990.313" y2="880.614" gradientUnits="userSpaceOnUse"><stop stop-color="#120667" stop-opacity=".16"></stop><stop offset="1" stop-color="#9B31F7" stop-opacity=".16"></stop></linearGradient><clipPath id="a"><use xlink:href="#reuse-0"></use></clipPath><clipPath id="r"><use transform="matrix(-1 0 0 1 1440 0)" xlink:href="#reuse-0"></use></clipPath><radialGradient id="s" cx="0" cy="0" r="1" gradientUnits="userSpaceOnUse" gradientTransform="matrix(-1745.92868 -19.71635 17.90161 -1585.22892 1605.02 857.017)"><stop stop-color="#120667"></stop><stop offset=".35" stop-color="#120667"></stop><stop offset="1" stop-color="#8900FF"></stop></radialGradient></defs></svg> 