<?xml version="1.0" encoding="UTF-8"?> <svg xmlns="http://www.w3.org/2000/svg" width="293" height="344" viewBox="0 0 293 344" fill="none"><g clip-path="url(#clip0)"><rect width="293" height="344" fill="white"></rect><path d="M289.151 346.818H5.86991C-0.646709 346.818 -5.88556 341.989 -5.88556 335.982V6.31341C-5.88556 0.306586 -0.646709 -4.52243 5.86991 -4.52243H289.151C295.668 -4.52243 300.907 0.306586 300.907 6.31341V335.982C300.907 341.871 295.668 346.818 289.151 346.818Z" fill="url(#paint0_linear)"></path><g clip-path="url(#clip1)"><g opacity="0.4"><path opacity="0.4" d="M636.376 294.491L636.51 294.261L692.776 261.704L674.256 250.987L674.073 250.669L673.89 250.774L559.777 184.744L559.445 184.551L559.341 184.49L541.258 174.027L541.074 173.709L540.891 173.814L426.449 107.594L426.339 107.53L408.253 97.0667L408.07 96.7487L407.886 96.8537L293.774 30.8237L293.442 30.6312L293.337 30.5699L275.254 20.1066L275.071 19.7886L274.888 19.8936L160.449 -46.3143L160.338 -46.3785L143.388 -36.5689L143.216 -36.6681L143.041 -36.3675L124.248 -25.4929L124.074 -25.595L123.896 -25.2886L85.9459 -3.33212L85.748 -3.44592L85.5471 -3.10162L46.9303 19.243L46.9012 19.2255L46.8721 19.2751L27.3395 30.5757L27.3366 30.5728L10.3861 40.3825L10.2144 40.2833L10.0397 40.5838L-8.75342 51.4585L-8.92807 51.3564L-9.10565 51.6627L-47.0558 73.6222L-47.2538 73.5084L-47.4517 73.8527L-86.0685 96.1972L-86.0976 96.1797L-86.1267 96.2293L-106.096 107.784L-106.07 107.798L-122.584 117.354L-122.755 117.255L-122.927 117.556L-141.72 128.43L-141.898 128.328L-142.075 128.635L-180.026 150.594L-180.223 150.48L-180.421 150.824L-219.038 173.169L-219.067 173.152L-219.096 173.201L-238.629 184.502L-238.632 184.499L-255.582 194.309L-255.754 194.209L-255.929 194.51L-274.722 205.385L-274.899 205.282L-275.077 205.589L-313.027 227.548L-313.225 227.434L-313.423 227.779L-352.043 250.123L-352.072 250.106L-352.101 250.155L-372.07 261.71L-335.133 283.083L-334.935 283.427L-334.737 283.313L-276.151 317.212L-276.043 317.396L-275.936 317.335L-238.737 338.86L-238.626 338.924L-202.126 360.043L-201.928 360.387L-201.73 360.273L-143.147 394.173L-143.039 394.356L-142.931 394.295L-105.735 415.82L-105.624 415.884L-69.1238 437.003L-68.9258 437.347L-68.7279 437.234L-10.142 471.133L-10.0342 471.316L-9.92654 471.255L27.2726 492.78L27.3832 492.844L63.8837 513.963L64.0817 514.307L64.2796 514.194L122.863 548.093L122.97 548.277L123.078 548.215L160.274 569.74L160.385 569.804L179.754 558.597L179.81 558.629L179.865 558.533L198.987 547.468L199.098 547.533L199.208 547.34L237.29 525.305L237.421 525.38L237.554 525.15L293.384 492.844L293.387 492.847L312.756 481.64L312.811 481.672L312.867 481.575L331.989 470.511L332.099 470.575L332.21 470.383L370.294 448.347L370.425 448.423L370.559 448.193L426.825 415.636L426.799 415.621L445.729 404.668L445.784 404.7L445.839 404.604L464.961 393.539L465.072 393.604L465.183 393.411L503.264 371.376L503.395 371.452L503.529 371.221L559.358 338.915L559.361 338.918L578.73 327.711L578.786 327.743L578.841 327.647L597.963 316.582L598.074 316.646L598.184 316.454L636.266 294.419L636.376 294.491ZM579.543 305.401L561.09 294.699L580.442 283.486L598.895 294.197L579.543 305.401ZM599.328 294.451L617.289 304.879L597.943 316.072L579.979 305.652L599.328 294.451ZM446.538 382.355L428.085 371.653L447.438 360.44L465.89 371.151L446.538 382.355ZM466.324 371.405L484.284 381.833L464.938 393.026L446.975 382.606L466.324 371.405ZM313.565 459.327L295.113 448.625L314.465 437.411L332.917 448.123L313.565 459.327ZM333.351 448.377L351.312 458.805L331.966 469.998L314.002 459.578L333.351 448.377ZM180.561 536.281L162.108 525.579L181.46 514.366L199.913 525.077L180.561 536.281ZM200.347 525.334L218.307 535.762L198.961 546.955L180.997 536.535L200.347 525.334ZM65.7148 491.893L84.4409 481.042L102.486 491.508L83.7598 502.368L65.7148 491.893ZM83.3231 502.622L64.2534 513.683L46.1676 503.22L65.2781 492.147L83.3231 502.622ZM-67.2841 414.936L-48.5579 404.084L-30.5128 414.551L-49.239 425.411L-67.2841 414.936ZM-49.6757 425.664L-68.7454 436.726L-86.8311 426.263L-67.7207 415.189L-49.6757 425.664ZM-200.286 337.978L-181.56 327.127L-163.515 337.593L-182.241 348.453L-200.286 337.978ZM-182.677 348.707L-201.747 359.769L-219.833 349.305L-200.722 338.232L-182.677 348.707ZM-333.287 261.021L-314.561 250.17L-296.516 260.636L-315.242 271.496L-333.287 261.021ZM-315.676 271.75L-334.746 282.811L-352.832 272.348L-333.721 261.275L-315.676 271.75ZM-294.732 238.683L-276.707 249.149L-296.077 260.382L-314.122 249.916L-294.732 238.683ZM-314.558 249.665L-332.449 239.289L-313.039 228.059L-295.171 238.432L-314.558 249.665ZM-256.456 216.504L-238.448 226.959L-257.818 238.192L-275.843 227.738L-256.456 216.504ZM-276.282 227.487L-294.147 217.126L-274.736 205.895L-256.895 216.253L-276.282 227.487ZM-161.73 161.728L-143.705 172.194L-163.075 183.428L-181.12 172.962L-161.73 161.728ZM-181.554 172.711L-199.445 162.335L-180.034 151.105L-162.167 161.477L-181.554 172.711ZM-123.451 139.55L-105.444 150.005L-124.813 161.238L-142.838 150.784L-123.451 139.55ZM-143.278 150.533L-161.142 140.172L-141.732 128.941L-123.891 139.299L-143.278 150.533ZM-28.7546 84.7565L-10.7299 95.2227L-30.1024 106.456L-48.1474 95.9901L-28.7546 84.7565ZM-48.5811 95.7391L-66.4719 85.3634L-47.0587 74.1299L-29.1913 84.5027L-48.5811 95.7391ZM9.52158 62.5782L27.5288 73.0328L8.15924 84.2663L-9.86539 73.8118L9.52158 62.5782ZM-10.305 73.5609L-28.1695 63.1997L-8.75925 51.9691L9.08203 62.3273L-10.305 73.5609ZM104.247 7.80224L122.272 18.2684L102.902 29.502L84.8572 19.0358L104.247 7.80224ZM84.4234 18.782L66.5327 8.40622L85.9459 -2.82734L103.813 7.54547L84.4234 18.782ZM142.526 -14.376L160.533 -3.92152L141.164 7.31204L123.139 -3.14246L142.526 -14.376ZM122.7 -3.39631L104.835 -13.7574L124.245 -24.9881L142.087 -14.6299L122.7 -3.39631ZM637.619 271.773L619.152 261.053L637.829 250.231L656.299 260.957L637.619 271.773ZM656.738 261.211L674.714 271.648L656.028 282.458L638.056 272.024L656.738 261.211ZM618.718 260.802L599.357 249.563L618.028 238.735L637.398 249.983L618.718 260.802ZM180.331 7.56881L160.961 18.7936L141.598 7.56298L160.967 -3.67059L180.331 7.56881ZM161.404 -3.92443L180.081 -14.7553L199.45 -3.50719L180.767 7.31788L161.404 -3.92443ZM313.33 84.526L293.96 95.7508L274.599 84.5231L293.969 73.2895L313.33 84.526ZM294.403 73.0328L313.079 62.2019L332.449 73.45L313.766 84.2751L294.403 73.0328ZM-141.246 261.223L-123.271 271.66L-141.735 282.345L-141.912 282.242L-142.023 282.435L-159.928 272.039L-141.246 261.223ZM-160.362 271.785L-178.829 261.065L-160.152 250.243L-141.682 260.969L-160.362 271.785ZM122.51 394L105.851 403.652L86.4815 392.404L103.089 382.773L103.065 382.732L122.842 394.175L122.947 394.359L123.052 394.298L141.469 404.954L124.755 414.632L106.285 403.906L122.726 394.38L122.51 394ZM-10.4942 317.043L-27.1536 326.695L-46.5231 315.447L-29.9161 305.815L-29.9394 305.775L-10.1623 317.218L-10.0575 317.402L-9.95273 317.341L8.4649 327.997L-8.24985 337.675L-26.7198 326.949L-10.2788 317.423L-10.4942 317.043ZM409.214 271.158L409.042 271.458L409.01 271.476L409.08 271.356L391.174 260.957L407.892 251.279L425.905 261.701L409.391 271.257L409.214 271.158ZM312.899 327.054L312.87 327.104L312.707 327.197L294.758 316.778L313.539 305.903L331.503 316.322L312.928 327.072L312.899 327.054ZM179.923 404.026L179.894 404.076L179.731 404.169L161.782 393.749L180.564 382.875L198.527 393.294L179.952 404.043L179.923 404.026ZM276.238 348.13L276.066 348.43L276.034 348.448L276.104 348.328L258.199 337.929L274.914 328.25L292.901 338.658L292.927 338.673L276.413 348.229L276.238 348.13ZM218.77 381.352L218.659 381.544L200.786 371.169L218.857 360.705L236.833 371.131L218.968 381.465L218.77 381.352ZM142.092 404.595L141.909 404.7L123.491 394.044L142.471 383.047L160.909 393.749L142.113 404.633L142.092 404.595ZM27.36 338.419L9.3877 328.02L28.3438 317.046L46.2928 327.466L27.36 338.419ZM-66.926 239.698L-66.8474 239.564L-48.9887 249.922L-67.7149 260.773L-85.6086 250.386L-67.0337 239.637L-66.926 239.698ZM-48.555 250.173L-30.5099 260.639L-49.2361 271.499L-67.2812 261.024L-48.555 250.173ZM27.7733 184.744L46.7032 173.79L46.7586 173.823L46.8139 173.726L46.9245 173.662L64.8181 184.05L45.7077 195.123L27.7966 184.759L27.7733 184.744ZM104.372 140.574L104.451 140.44L122.26 150.769L104.244 161.206L86.3767 150.833L104.241 140.498L104.372 140.574ZM255.926 163.473L256.03 163.412L274.448 174.068L257.733 183.746L239.263 173.02L255.704 163.494L255.486 163.114L238.826 172.766L219.457 161.518L236.064 151.887L236.041 151.846L255.818 163.289L255.926 163.473ZM293.34 184.998L311.187 195.324L294.65 204.906L276.823 194.554L293.34 184.998ZM199.945 326.278L181.227 315.412L199.91 304.587L218.616 315.45L199.945 326.278ZM219.049 315.701L238.419 326.949L219.742 337.771L200.382 326.532L219.049 315.701ZM179.926 250.112L179.897 250.094L179.868 250.144L179.702 250.24L161.753 239.82L180.535 228.946L198.498 239.365L179.926 250.112ZM179.268 250.494L160.335 261.447L142.363 251.048L161.319 240.074L179.268 250.494ZM143.411 271.779L161.238 282.132L142.549 292.96L124.708 282.601L143.411 271.779ZM143.848 271.525L160.362 261.97L178.209 272.296L161.672 281.878L143.848 271.525ZM160.775 261.701L179.705 250.748L179.76 250.78L179.816 250.684L179.929 250.619L197.823 261.007L178.712 272.08L160.775 261.701ZM180.363 250.365L198.938 239.619L199.048 239.683L199.127 239.549L216.986 249.907L198.259 260.759L180.363 250.365ZM198.938 239.111L180.974 228.692L200.323 217.491L218.284 227.919L198.938 239.111ZM180.537 228.441L162.085 217.739L181.437 206.525L199.89 217.237L180.537 228.441ZM180.101 228.695L161.319 239.57L142.881 228.867L161.648 217.995L180.101 228.695ZM160.883 239.82L142.101 250.695L142.095 250.684L141.912 250.789L123.465 240.115L142.445 229.118L160.883 239.82ZM104.267 293.922L86.2923 283.497L105.641 272.296L123.614 282.73L104.267 293.922ZM124.272 282.852L142.113 293.211L122.723 304.444L104.858 294.083L124.272 282.852ZM142.549 293.464L160.557 303.919L141.187 315.152L123.163 304.698L142.549 293.464ZM142.986 293.211L161.674 282.383L179.67 292.831L160.993 303.662L142.986 293.211ZM162.111 282.132L178.561 272.602L178.474 272.45L196.667 282.978L180.107 292.583L162.111 282.132ZM179.146 272.334L198.257 261.261L216.302 271.735L197.232 282.797L179.146 272.334ZM198.693 261.007L217.419 250.155L235.464 260.622L216.738 271.482L198.693 261.007ZM217.856 249.904L237.246 238.671L255.271 249.137L235.901 260.371L217.856 249.904ZM217.419 249.651L199.529 239.275L218.939 228.044L236.806 238.417L217.419 249.651ZM219.378 227.79L237.24 217.456L237.371 217.531L237.45 217.397L255.262 227.726L237.246 238.163L219.378 227.79ZM218.942 227.537L218.744 227.423L218.633 227.615L200.76 217.24L218.831 206.776L236.806 217.202L218.942 227.537ZM200.323 216.986L181.871 206.274L199.924 195.814L218.392 206.525L200.323 216.986ZM181.434 206.021L162.094 194.793L180.13 184.333L199.491 195.56L181.434 206.021ZM180.997 206.274L161.645 217.488L142.305 206.272L161.657 195.047L180.997 206.274ZM161.212 217.739L142.445 228.61L123.125 217.394L141.871 206.522L161.212 217.739ZM142.008 228.864L123.026 239.861L103.682 228.669L122.685 217.645L142.008 228.864ZM159.925 261.716L143.411 271.272L143.239 271.172L143.068 271.47L143.033 271.49L143.103 271.371L125.197 260.972L141.912 251.293L159.925 261.716ZM142.736 271.663L124.272 282.345L124.097 282.242L123.986 282.435L106.078 272.039L124.761 261.223L142.736 271.663ZM105.641 271.788L87.1743 261.068L105.851 250.246L124.321 260.972L105.641 271.788ZM105.205 272.042L85.8557 283.243L67.3885 272.532L86.7406 261.319L105.205 272.042ZM85.419 283.497L67.3478 293.96L48.8952 283.249L66.949 272.789L85.419 283.497ZM85.8557 283.748L103.831 294.173L85.9692 304.508L85.7713 304.394L85.6606 304.587L67.7874 294.211L85.8557 283.748ZM104.267 294.427L104.398 294.503L104.477 294.369L122.289 304.698L104.273 315.135L86.4058 304.762L104.267 294.427ZM122.723 304.952L140.748 315.406L122.732 325.855L104.707 315.392L122.723 304.952ZM141.184 315.657L160.545 326.885L142.512 337.334L123.168 326.103L141.184 315.657ZM141.621 315.406L160.99 304.173L180.351 315.412L160.982 326.637L141.621 315.406ZM161.427 303.919L180.104 293.088L199.473 304.336L180.791 315.161L161.427 303.919ZM180.54 292.834L196.97 283.305L197.034 283.418L197.232 283.305L216.514 294.462L199.91 304.082L180.54 292.834ZM197.668 283.051L216.738 271.992L236.061 283.211L217.015 294.246L197.668 283.051ZM217.175 271.738L235.901 260.878L255.241 272.097L236.495 282.957L217.175 271.738ZM236.338 260.622L255.707 249.388L275.051 260.616L255.678 271.841L236.338 260.622ZM256.144 249.134L274.16 238.685L293.521 249.913L275.487 260.362L256.144 249.134ZM255.707 248.883L237.682 238.42L255.698 227.983L273.723 238.437L255.707 248.883ZM256.135 227.726L275.525 216.493L293.532 226.947L274.163 238.181L256.135 227.726ZM255.698 227.472L237.834 217.114L257.244 205.883L275.085 216.242L255.698 227.472ZM237.24 216.951L219.265 206.525L238.614 195.324L256.586 205.758L237.24 216.951ZM218.828 206.272L200.361 195.56L219.713 184.347L238.18 195.067L218.828 206.272ZM199.924 195.306L180.564 184.079L199.916 172.854L219.277 184.093L199.924 195.306ZM180.127 183.825L161.389 172.959L180.759 161.737L199.476 172.603L180.127 183.825ZM179.693 184.079L161.66 194.539L142.922 183.661L160.955 173.213L179.693 184.079ZM161.22 194.793L141.868 206.018L123.11 195.14L142.48 183.918L161.22 194.793ZM141.435 206.269L122.688 217.14L103.93 206.251L122.676 195.388L141.435 206.269ZM122.251 217.394L103.246 228.418L84.4467 217.54L103.493 206.505L122.251 217.394ZM122.816 240.244L122.924 240.427L123.032 240.366L141.478 251.039L124.764 260.718L106.294 249.992L122.735 240.465L122.516 240.086L105.857 249.738L86.4873 238.49L103.094 228.858L103.071 228.817L122.816 240.244ZM105.417 249.992L86.7406 260.814L67.3798 249.575L86.0507 238.747L105.417 249.992ZM86.304 261.068L66.9519 272.281L47.5911 261.053L66.9431 249.829L86.304 261.068ZM66.5153 272.532L48.4615 282.992L29.1211 271.765L47.1574 261.304L66.5153 272.532ZM48.0248 283.246L28.6728 294.459L9.33237 283.243L28.6844 272.018L48.0248 283.246ZM48.4615 283.497L66.9141 294.208L47.5649 305.41L29.1123 294.707L48.4615 283.497ZM67.3478 294.465L85.3084 304.893L65.9622 316.086L47.9987 305.667L67.3478 294.465ZM85.9692 305.016L103.837 315.389L84.4467 326.622L66.556 316.247L85.9692 305.016ZM104.273 315.643L122.298 326.109L102.928 337.342L84.8834 326.876L104.273 315.643ZM122.735 326.36L142.078 337.59L122.708 348.815L103.365 337.596L122.735 326.36ZM142.512 337.841L161.25 348.719L141.897 359.944L123.139 349.066L142.512 337.841ZM142.948 337.59L160.982 327.142L179.72 338.011L161.686 348.471L142.948 337.59ZM161.418 326.888L180.788 315.666L199.505 326.532L180.153 337.757L161.418 326.888ZM200.344 304.333L216.884 294.751L216.817 294.637L235.68 305.553L219.049 315.199L200.344 304.333ZM217.451 294.497L236.498 283.462L255.256 294.351L236.25 305.375L217.451 294.497ZM236.932 283.208L255.678 272.345L274.436 283.223L255.69 294.095L236.932 283.208ZM256.115 272.094L275.484 260.87L294.222 271.747L274.87 282.972L256.115 272.094ZM275.921 260.619L293.954 250.17L312.692 261.039L294.659 271.499L275.921 260.619ZM294.394 249.916L313.763 238.691L332.481 249.557L313.129 260.782L294.394 249.916ZM293.957 249.662L274.596 238.435L293.966 227.201L313.327 238.44L293.957 249.662ZM294.403 226.947L313.079 216.116L332.449 227.364L313.766 238.189L294.403 226.947ZM293.966 226.693L275.959 216.239L294.647 205.411L312.643 215.859L293.966 226.693ZM275.525 215.988L257.684 205.63L276.387 194.807L294.213 205.16L275.525 215.988ZM257.244 205.376L257.07 205.274L256.959 205.466L239.051 195.07L257.733 184.254L275.708 194.691L257.244 205.376ZM238.614 194.816L220.147 184.096L238.824 173.274L257.294 184L238.614 194.816ZM219.713 183.842L200.352 172.603L219.023 161.775L238.393 173.023L219.713 183.842ZM199.916 172.349L181.198 161.483L199.881 150.658L218.587 161.521L199.916 172.349ZM180.762 161.229L161.401 149.99L180.078 139.159L199.447 150.407L180.762 161.229ZM180.325 161.483L160.955 172.705L141.595 161.477L160.964 150.244L180.325 161.483ZM160.519 172.959L142.485 183.408L123.142 172.177L141.158 161.728L160.519 172.959ZM142.049 183.661L122.679 194.883L103.336 183.664L122.705 172.431L142.049 183.661ZM122.24 195.137L103.496 205.997L84.1731 194.778L102.899 183.918L122.24 195.137ZM103.059 206.251L84.013 217.286L64.6668 206.094L83.7365 195.035L103.059 206.251ZM64.0322 206.461L64.2302 206.347L83.5124 217.505L66.9082 227.125L47.5387 215.877L63.9682 206.347L64.0322 206.461ZM83.818 217.68L102.681 228.593L86.0507 238.239L67.3449 227.376L83.8849 217.794L83.818 217.68ZM85.614 238.493L66.9431 249.321L48.2257 238.455L66.9082 227.63L85.614 238.493ZM66.5065 249.575L47.1545 260.8L28.4166 249.934L47.7861 238.712L66.5065 249.575ZM46.7178 261.05L28.6844 271.511L9.94656 260.633L27.98 250.185L46.7178 261.05ZM28.2478 271.765L8.89572 282.989L-9.85956 272.109L9.50992 260.887L28.2478 271.765ZM8.46198 283.24L-10.2846 294.112L-29.0428 283.223L-10.2962 272.36L8.46198 283.24ZM8.89572 283.494L28.2361 294.71L9.46918 305.582L-9.85086 294.366L8.89572 283.494ZM28.6728 294.964L47.1254 305.667L28.3438 316.541L9.90582 305.839L28.6728 294.964ZM47.562 305.918L65.5255 316.337L46.9536 327.086L46.9245 327.069L46.8954 327.118L46.7294 327.215L28.7805 316.795L47.562 305.918ZM65.9651 316.591L66.0757 316.655L66.1543 316.521L84.013 326.879L65.2868 337.73L47.3932 327.343L65.9651 316.591ZM84.4467 327.13L102.492 337.596L83.7656 348.456L65.7205 337.981L84.4467 327.13ZM102.928 337.847L122.272 349.066L103.525 359.926L84.2022 348.707L102.928 337.847ZM122.705 349.32L141.464 360.198L122.717 371.069L103.959 360.18L122.705 349.32ZM141.897 360.451L161.238 371.667L142.474 382.539L123.154 371.323L141.897 360.451ZM142.334 360.198L161.686 348.973L181.027 360.2L161.674 371.414L142.334 360.198ZM162.123 348.722L180.156 338.262L199.517 349.489L181.463 359.95L162.123 348.722ZM180.593 338.008L199.945 326.783L219.306 338.022L199.954 349.235L180.593 338.008ZM219.739 338.276L238.206 348.996L218.857 360.198L200.39 349.486L219.739 338.276ZM220.176 338.025L238.853 327.203L257.323 337.929L238.64 348.745L220.176 338.025ZM239.289 326.949L255.73 317.423L255.512 317.043L238.853 326.695L219.483 315.447L236.09 305.815L236.067 305.775L255.812 317.201L255.92 317.385L256.027 317.323L274.474 327.997L257.759 337.675L239.289 326.949ZM236.687 305.626L255.69 294.602L275.01 305.818L256.027 316.816L236.687 305.626ZM256.126 294.351L274.873 283.48L294.213 294.696L275.449 305.567L256.126 294.351ZM275.31 283.226L294.662 272.001L314.002 283.229L294.65 294.442L275.31 283.226ZM295.095 271.75L313.129 261.29L332.49 272.517L314.436 282.978L295.095 271.75ZM313.565 261.036L332.917 249.811L352.278 261.05L332.926 272.264L313.565 261.036ZM333.354 249.56L352.025 238.732L371.395 249.98L352.718 260.802L333.354 249.56ZM332.917 249.306L314.2 238.44L332.883 227.615L351.588 238.478L332.917 249.306ZM333.319 227.361L349.859 217.779L349.792 217.666L368.655 228.581L352.025 238.227L333.319 227.361ZM332.883 227.108L313.513 215.859L329.957 206.321L330.036 206.458L330.234 206.344L349.487 217.485L332.883 227.108ZM313.079 215.609L295.084 205.16L311.534 195.63L311.446 195.479L329.64 206.006L313.079 215.609ZM276.384 194.3L276.212 194.201L276.04 194.498L276.005 194.519L276.075 194.399L258.17 184L274.888 174.322L292.901 184.744L276.384 194.3ZM219.023 161.267L200.318 150.404L216.858 140.822L216.791 140.708L235.654 151.624L219.023 161.267ZM199.881 150.15L180.511 138.902L196.955 129.364L197.034 129.501L197.232 129.387L216.485 140.527L199.881 150.15ZM180.078 138.651L162.082 128.203L178.532 118.673L178.445 118.521L196.638 129.049L180.078 138.651ZM179.641 138.905L160.964 149.736L142.957 139.282L161.645 128.454L179.641 138.905ZM160.528 149.99L141.158 161.223L123.133 150.769L142.523 139.535L160.528 149.99ZM140.721 161.477L122.705 171.926L104.681 161.463L122.697 151.026L140.721 161.477ZM103.808 161.46L84.4177 172.693L66.5269 162.318L85.9372 151.087L103.808 161.46ZM104.244 161.714L122.269 172.18L102.899 183.413L84.8543 172.947L104.244 161.714ZM102.463 183.664L83.7365 194.524L65.6914 184.05L84.4177 173.198L102.463 183.664ZM83.2998 194.781L64.2302 205.843L46.1443 195.379L65.2548 184.306L83.2998 194.781ZM63.6654 206.018L47.105 215.623L29.1094 205.174L45.5592 195.645L45.4719 195.493L63.6654 206.018ZM46.6683 215.877L27.9916 226.708L9.98441 216.253L28.6728 205.425L46.6683 215.877ZM47.1021 216.128L66.4716 227.376L47.789 238.201L28.4283 226.962L47.1021 216.128ZM47.3524 238.455L27.9829 249.68L8.6221 238.452L27.9916 227.218L47.3524 238.455ZM27.5463 249.931L9.51285 260.379L-9.83337 249.152L8.18256 238.703L27.5463 249.931ZM9.07327 260.633L-10.2962 271.855L-29.6396 260.636L-10.27 249.403L9.07327 260.633ZM-10.7328 272.109L-29.4794 282.969L-48.8024 271.75L-30.0762 260.89L-10.7328 272.109ZM-49.6728 271.753L-68.7425 282.814L-86.8282 272.351L-67.7178 261.278L-49.6728 271.753ZM-49.239 272.004L-29.9161 283.223L-48.9625 294.258L-68.3087 283.065L-49.239 272.004ZM-29.4794 283.477L-10.7213 294.366L-29.7269 305.389L-48.5258 294.512L-29.4794 283.477ZM-10.2846 294.62L9.03543 305.836L-9.9469 316.833L-29.2902 305.64L-10.2846 294.62ZM9.47208 306.09L27.9101 316.792L9.11404 327.676L9.09369 327.638L8.91028 327.743L-9.51025 317.087L9.47208 306.09ZM46.7294 327.719L46.7848 327.752L46.8401 327.655L46.9536 327.591L64.8473 337.978L45.7368 349.052L27.7995 338.673L46.7294 327.719ZM65.2839 338.232L83.3289 348.707L64.2593 359.769L46.1735 349.305L65.2839 338.232ZM83.7627 348.961L103.086 360.18L84.0392 371.215L64.693 360.022L83.7627 348.961ZM103.522 360.434L122.28 371.323L103.275 382.347L84.4759 371.469L103.522 360.434ZM122.717 371.577L142.037 382.793L123.055 393.79L103.711 382.598L122.717 371.577ZM142.91 382.793L161.677 371.921L180.13 382.624L161.348 393.499L142.91 382.793ZM162.111 371.667L181.463 360.454L199.916 371.166L180.567 382.367L162.111 371.667ZM181.9 360.203L199.954 349.743L218.421 360.454L200.352 370.918L181.9 360.203ZM219.294 360.454L238.643 349.253L256.615 359.687L237.269 370.88L219.294 360.454ZM257.096 359.203L256.985 359.395L239.08 348.999L257.762 338.183L275.738 348.62L257.273 359.305L257.096 359.203ZM275.365 328.005L294.321 317.032L312.27 327.451L293.337 338.404L275.365 328.005ZM275.103 327.652L275.097 327.641L274.914 327.746L256.467 317.072L275.446 306.075L293.884 316.778L275.103 327.652ZM275.883 305.821L294.65 294.95L313.103 305.652L294.321 316.527L275.883 305.821ZM295.087 294.696L314.439 283.483L332.891 294.194L313.542 305.395L295.087 294.696ZM314.872 283.232L332.926 272.771L351.393 283.483L333.325 293.946L314.872 283.232ZM333.363 272.517L352.715 261.304L371.182 272.024L351.833 283.226L333.363 272.517ZM353.152 261.053L371.828 250.231L390.298 260.957L371.616 271.773L353.152 261.053ZM372.265 249.977L388.706 240.451L388.488 240.071L371.828 249.724L352.459 238.475L369.066 228.844L369.042 228.803L388.819 240.246L388.924 240.43L389.029 240.369L407.447 251.025L390.732 260.703L372.265 249.977ZM178.183 118.367L161.645 127.949L143.819 117.596L160.333 108.041L178.183 118.367ZM161.212 128.203L142.523 139.031L124.682 128.672L143.385 117.85L161.212 128.203ZM142.087 139.282L122.697 150.515L104.832 140.154L124.242 128.923L142.087 139.282ZM65.9359 162.662L66.0466 162.726L66.1252 162.592L83.9839 172.95L65.2577 183.801L47.364 173.414L53.413 169.913L65.9359 162.662ZM45.2099 195.339L28.6728 204.921L10.846 194.568L27.36 185.012L45.2099 195.339ZM28.2361 205.174L9.54776 216.002L-8.29346 205.644L10.4094 194.822L28.2361 205.174ZM9.11111 216.253L-10.2788 227.487L-28.1404 217.129L-8.7301 205.898L9.11111 216.253ZM9.54776 216.507L27.555 226.962L8.18546 238.195L-9.8392 227.741L9.54776 216.507ZM7.74881 238.449L-10.2671 248.898L-28.2918 238.435L-10.2758 227.998L7.74881 238.449ZM-10.7038 249.152L-30.0733 260.385L-48.1183 249.919L-28.7284 238.685L-10.7038 249.152ZM-48.555 249.668L-66.4457 239.292L-47.0355 228.062L-29.168 238.435L-48.555 249.668ZM-86.2693 250.762L-86.214 250.794L-86.1587 250.698L-86.0481 250.634L-68.1544 261.021L-87.2649 272.094L-105.202 261.716L-86.2693 250.762ZM142.389 404.977L161.346 394.003L179.294 404.423L160.362 415.376L142.389 404.977ZM181 382.624L200.349 371.422L218.31 381.851L198.964 393.043L181 382.624ZM313.976 305.652L333.325 294.451L351.286 304.879L331.939 316.072L313.976 305.652ZM351.746 304.38L351.635 304.572L333.762 294.197L351.833 283.733L369.808 294.159L351.943 304.494L351.746 304.38ZM352.267 283.483L371.616 272.281L389.588 282.715L370.242 293.908L352.267 283.483ZM390.068 282.231L389.958 282.423L372.052 272.027L390.735 261.211L408.71 271.648L390.246 282.333L390.068 282.231ZM-28.7343 217.47L-28.6032 217.546L-28.5246 217.412L-10.7154 227.741L-28.7284 238.181L-46.5959 227.808L-38.9197 223.367L-28.7343 217.47ZM426.339 261.45L408.367 251.051L427.323 240.074L445.272 250.494L426.339 261.45ZM408.09 250.704L408.07 250.666L407.886 250.771L389.469 240.115L408.451 229.118L426.889 239.82L408.09 250.704ZM389.032 239.864L369.689 228.672L388.691 217.648L408.011 228.864L389.032 239.864ZM369.252 228.418L350.453 217.54L369.5 206.505L388.258 217.394L369.252 228.418ZM350.016 217.289L330.67 206.096L349.74 195.038L369.063 206.257L350.016 217.289ZM330.236 205.843L312.151 195.376L331.261 184.303L349.306 194.778L330.236 205.843ZM311.714 195.126L293.777 184.747L312.707 173.793L312.762 173.826L312.817 173.729L312.931 173.665L330.824 184.052L311.714 195.126ZM293.34 184.493H293.337L275.365 174.094L294.321 163.12L312.27 173.54L293.34 184.493ZM275.088 173.747L275.068 173.709L274.885 173.814L256.467 163.158L275.446 152.161L293.884 162.863L275.088 173.747ZM256.03 162.907L236.687 151.714L255.69 140.691L275.01 151.907L256.03 162.907ZM236.253 151.461L217.454 140.583L236.501 129.548L255.259 140.437L236.253 151.461ZM217.015 140.332L197.668 129.139L216.738 118.081L236.061 129.3L217.015 140.332ZM197.235 128.885L179.149 118.422L198.259 107.349L216.304 117.824L197.235 128.885ZM178.712 118.168L160.775 107.79L179.708 96.8362L179.763 96.8683L179.818 96.772L179.929 96.7079L197.823 107.095L178.712 118.168ZM160.338 107.536L142.366 97.1368L161.322 86.1629L179.271 96.5824L160.338 107.536ZM104.241 139.994L86.2661 129.568L105.615 118.367L123.587 128.801L104.241 139.994ZM103.805 140.244L85.9401 150.579L85.7421 150.466L85.6315 150.658L67.7582 140.282L85.8295 129.819L103.805 140.244ZM85.2822 150.962L65.9359 162.154L47.9724 151.735L67.3216 140.533L85.2822 150.962ZM65.4993 162.408L46.9245 173.157L46.8954 173.14L46.8663 173.189L46.7032 173.283L28.7543 162.863L47.5358 151.989L65.4993 162.408ZM46.2666 173.537L27.3338 184.49L9.36145 174.091L28.3176 163.117L46.2666 173.537ZM-28.7343 216.965L-46.7094 206.54L-27.3603 195.339L-9.388 205.773L-28.7343 216.965ZM-29.1709 217.216L-39.3593 223.11L-47.0355 227.551L-47.2334 227.437L-47.344 227.63L-65.2173 217.254L-47.1461 206.791L-29.1709 217.216ZM-47.6904 227.933L-67.0366 239.126L-85.0002 228.707L-65.651 217.505L-47.6904 227.933ZM-67.4733 239.38L-86.0481 250.129L-86.0772 250.112L-86.1063 250.161L-86.2693 250.255L-104.218 239.835L-85.4368 228.96L-67.4733 239.38ZM-86.706 250.508L-105.639 261.462L-123.611 251.063L-104.655 240.089L-86.706 250.508ZM-105.642 261.967L-87.7947 272.293L-104.332 281.875L-122.159 271.522L-105.642 261.967ZM-87.5327 272.444L-69.3392 282.972L-85.8997 292.577L-103.895 282.129L-87.4454 272.599L-87.5327 272.444ZM-69.019 283.293L-68.9404 283.43L-68.7425 283.316L-49.4894 294.456L-66.0935 304.076L-85.463 292.828L-69.019 283.293ZM-49.1866 294.634L-30.3236 305.55L-46.9539 315.196L-65.6598 304.333L-49.1197 294.751L-49.1866 294.634ZM8.90738 328.25L26.9204 338.673L10.4065 348.229L10.2347 348.13L10.063 348.427L10.0281 348.448L10.0979 348.328L-7.80737 337.929L8.90738 328.25ZM27.36 338.924H27.3629L45.207 349.25L28.6699 358.832L10.8432 348.48L27.36 338.924ZM45.469 349.402L63.6625 359.929L47.1021 369.535L29.1065 359.086L45.5564 349.556L45.469 349.402ZM63.9827 360.25L64.0613 360.387L64.2593 360.273L83.5124 371.414L66.9082 381.034L47.5387 369.785L63.9827 360.25ZM83.8151 371.592L102.678 382.507L86.0478 392.153L67.3419 381.29L83.882 371.708L83.8151 371.592ZM141.909 405.208L159.922 415.63L143.408 425.186L143.236 425.087L143.062 425.387L143.03 425.405L143.1 425.285L125.194 414.886L141.909 405.208ZM160.801 415.63L179.734 404.677L179.789 404.709L179.845 404.612L179.955 404.548L197.849 414.936L178.739 426.009L160.801 415.63ZM180.389 404.294L186.438 400.793L198.964 393.545L199.075 393.609L199.153 393.475L217.012 403.833L198.286 414.685L180.389 404.294ZM199.558 393.204L218.968 381.973L236.835 392.346L217.445 403.58L199.558 393.204ZM219.405 381.719L237.269 371.384L237.4 371.46L237.479 371.326L255.288 381.655L237.272 392.092L219.405 381.719ZM237.86 371.043L257.27 359.812L275.112 370.171L255.722 381.404L237.86 371.043ZM257.707 359.559L276.41 348.736L294.237 359.089L275.548 369.917L257.707 359.559ZM276.847 348.483L293.36 338.927L311.208 349.253L294.67 358.835L276.847 348.483ZM293.8 338.673L293.774 338.658L312.704 327.705L312.759 327.737L312.814 327.641L312.925 327.576L330.819 337.964L311.708 349.037L293.8 338.673ZM313.362 327.323L319.411 323.821L331.936 316.573L332.047 316.638L332.126 316.503L349.984 326.862L331.258 337.713L313.362 327.323ZM426.778 261.704L445.711 250.751L445.767 250.783L445.822 250.686L445.933 250.622L463.826 261.01L444.716 272.083L426.778 261.704ZM446.366 250.368L464.941 239.619L465.052 239.683L465.13 239.549L482.989 249.907L464.263 260.759L446.366 250.368ZM445.93 250.115L445.901 250.097L445.871 250.147L445.708 250.24L427.759 239.82L446.541 228.946L464.504 239.365L445.93 250.115ZM427.326 239.57L408.888 228.867L427.655 217.995L446.107 228.698L427.326 239.57ZM408.451 228.613L389.131 217.397L407.878 206.525L427.218 217.741L408.451 228.613ZM388.694 217.143L369.936 206.254L388.683 195.391L407.441 206.269L388.694 217.143ZM369.5 206L350.177 194.781L368.903 183.921L388.246 195.14L369.5 206ZM349.743 194.53L331.698 184.055L350.424 173.204L368.469 183.67L349.743 194.53ZM331.261 183.799L313.367 173.411L331.942 162.665L332.053 162.729L332.132 162.595L349.99 172.953L331.261 183.799ZM312.931 173.157L312.902 173.14L312.873 173.189L312.707 173.286L294.758 162.866L313.539 151.992L331.503 162.411L312.931 173.157ZM294.321 162.612L275.883 151.91L294.65 141.038L313.103 151.741L294.321 162.612ZM275.449 151.656L256.129 140.44L274.876 129.568L294.216 140.784L275.449 151.656ZM255.693 140.186L236.934 129.297L255.681 118.434L274.439 129.311L255.693 140.186ZM236.498 129.043L217.175 117.824L235.901 106.961L255.244 118.18L236.498 129.043ZM216.741 117.573L198.696 107.098L217.422 96.2468L235.467 106.713L216.741 117.573ZM198.259 106.844L180.366 96.4569L198.941 85.7077L199.051 85.7719L199.13 85.6377L216.989 95.9959L198.259 106.844ZM179.929 96.2001L179.9 96.1826L179.871 96.2323L179.708 96.3256L161.759 85.9061L180.54 75.0314L198.504 85.4509L179.929 96.2001ZM161.322 85.6552L142.884 74.9527L161.651 64.0809L180.104 74.7834L161.322 85.6552ZM160.886 85.909L142.09 96.7925L142.069 96.7545L141.886 96.8596L123.468 86.2037L142.451 75.2065L160.886 85.909ZM159.899 107.787L143.385 117.343L143.213 117.243L143.039 117.544L143.006 117.561L143.076 117.442L125.171 107.043L141.889 97.3644L159.899 107.787ZM142.707 117.734L124.242 128.419L124.068 128.316L123.957 128.509L106.052 118.113L124.734 107.297L142.707 117.734ZM105.615 117.859L87.1481 107.139L105.825 96.3169L124.295 107.043L105.615 117.859ZM105.179 118.113L85.8295 129.314L67.3623 118.603L86.7144 107.39L105.179 118.113ZM85.3928 129.568L67.3216 140.031L48.869 129.32L66.9228 118.86L85.3928 129.568ZM66.8878 140.282L47.5387 151.484L29.0861 140.781L48.4382 129.568L66.8878 140.282ZM47.1021 151.738L28.3205 162.612L9.88254 151.91L28.6495 141.038L47.1021 151.738ZM27.881 162.863L9.09946 173.738L9.09369 173.726L8.91028 173.831L-9.53647 163.158L9.44299 152.161L27.881 162.863ZM26.8971 184.744L26.9233 184.759L10.4094 194.314L10.2377 194.215L10.063 194.516L10.031 194.533L10.1009 194.414L-7.80444 184.014L8.91028 174.336L26.8971 184.744ZM9.73407 194.705L-8.7301 205.39L-8.90771 205.288L-9.01834 205.481L-26.9236 195.085L-8.24109 184.268L9.73407 194.705ZM-27.3574 194.831L-45.8245 184.111L-27.1478 173.289L-8.67773 184.014L-27.3574 194.831ZM-27.794 195.085L-47.1432 206.286L-65.6103 195.575L-46.2582 184.362L-27.794 195.085ZM-47.5798 206.54L-65.651 217.003L-84.1036 206.289L-66.0498 195.829L-47.5798 206.54ZM-66.0876 217.254L-85.4368 228.456L-103.889 217.753L-84.5373 206.54L-66.0876 217.254ZM-85.8734 228.71L-104.655 239.584L-123.093 228.882L-104.326 218.01L-85.8734 228.71ZM-105.092 239.835L-123.888 250.719L-123.908 250.681L-124.091 250.786L-142.509 240.13L-123.53 229.133L-105.092 239.835ZM-106.078 261.716L-122.592 271.272L-122.764 271.172L-122.939 271.473L-122.971 271.49L-122.901 271.371L-140.806 260.972L-124.089 251.293L-106.078 261.716ZM-131.281 276.804L-122.595 271.776L-104.768 282.129L-123.457 292.957L-141.298 282.598L-131.281 276.804ZM-104.332 282.383L-86.3363 292.831L-105.013 303.662L-123.02 293.208L-104.332 282.383ZM-85.8997 293.085L-66.5301 304.333L-85.2127 315.158L-104.573 303.919L-85.8997 293.085ZM-66.0964 304.584L-47.3906 315.447L-66.0615 326.275L-84.7789 315.409L-66.0964 304.584ZM-46.9539 315.701L-27.5873 326.949L-46.264 337.771L-65.6248 326.532L-46.9539 315.701ZM-27.1507 327.2L-8.68066 337.926L-27.3632 348.742L-45.8303 338.022L-27.1507 327.2ZM-8.24402 338.18L9.73117 348.617L-8.73303 359.299L-8.90771 359.197L-9.01834 359.389L-26.9265 348.993L-8.24402 338.18ZM10.4065 348.733L28.2332 359.086L9.54486 369.914L-8.29639 359.556L10.4065 348.733ZM28.6699 359.34L46.6654 369.788L27.9887 380.619L9.98151 370.165L28.6699 359.34ZM47.1021 370.042L66.4716 381.29L47.789 392.115L28.4283 380.876L47.1021 370.042ZM66.9053 381.541L85.6111 392.404L66.9402 403.232L48.2228 392.366L66.9053 381.541ZM86.0478 392.658L105.417 403.906L86.7406 414.728L67.3798 403.489L86.0478 392.658ZM105.851 404.157L124.321 414.883L105.639 425.699L87.1714 414.979L105.851 404.157ZM124.758 415.137L142.733 425.574L124.269 436.259L124.091 436.157L123.98 436.349L106.075 425.953L124.758 415.137ZM134.722 430.718L143.408 425.691L161.235 436.043L142.547 446.871L124.705 436.513L134.722 430.718ZM143.845 425.437L160.359 415.881L178.206 426.207L161.669 435.789L143.845 425.437ZM179.172 426.263L198.283 415.189L216.328 425.664L197.258 436.726L179.172 426.263ZM198.719 414.939L217.445 404.087L235.491 414.553L216.764 425.413L198.719 414.939ZM217.882 403.833L237.272 392.6L255.297 403.066L235.927 414.3L217.882 403.833ZM237.709 392.346L255.725 381.909L273.749 392.363L255.733 402.812L237.709 392.346ZM256.161 381.655L275.551 370.422L293.558 380.876L274.189 392.11L256.161 381.655ZM275.985 370.168L294.673 359.34L312.669 369.788L293.992 380.619L275.985 370.168ZM295.11 359.089L311.56 349.559L311.472 349.408L329.666 359.935L313.105 369.54L295.11 359.089ZM312.148 349.291L331.258 338.218L349.303 348.693L330.234 359.754L312.148 349.291ZM331.692 337.964L350.418 327.113L368.463 337.579L349.737 348.439L331.692 337.964ZM350.858 326.862L370.248 315.628L388.272 326.094L368.903 337.328L350.858 326.862ZM350.421 326.608L332.53 316.232L351.941 305.001L369.808 315.374L350.421 326.608ZM352.377 304.748L370.242 294.413L370.373 294.489L370.451 294.354L388.261 304.683L370.245 315.12L352.377 304.748ZM370.833 294.068L390.243 282.838L408.084 293.196L388.694 304.43L370.833 294.068ZM390.683 282.584L409.385 271.762L427.212 282.114L408.524 292.942L390.683 282.584ZM409.822 271.511L426.336 261.955L444.183 272.281L427.646 281.863L409.822 271.511ZM445.15 272.334L464.26 261.261L482.305 271.735L463.235 282.797L445.15 272.334ZM464.697 261.01L483.423 250.158L501.468 260.624L482.742 271.485L464.697 261.01ZM483.859 249.907L503.249 238.674L521.274 249.14L501.904 260.374L483.859 249.907ZM483.423 249.654L465.532 239.278L484.942 228.047L502.81 238.42L483.423 249.654ZM464.944 239.114L446.981 228.695L466.33 217.493L484.29 227.922L464.944 239.114ZM446.544 228.444L428.091 217.741L447.443 206.528L465.896 217.24L446.544 228.444ZM427.652 217.488L408.311 206.272L427.663 195.047L447.004 206.274L427.652 217.488ZM407.878 206.018L389.119 195.14L408.489 183.918L427.227 194.796L407.878 206.018ZM388.683 194.886L369.339 183.667L388.709 172.434L408.052 183.664L388.683 194.886ZM368.906 183.413L350.861 172.947L370.25 161.714L388.275 172.18L368.906 183.413ZM350.424 172.696L332.533 162.321L351.943 151.09L369.811 161.463L350.424 172.696ZM352.383 150.836L370.245 140.501L370.376 140.577L370.454 140.44L388.266 150.769L370.25 161.206L352.383 150.836ZM331.939 162.157L313.976 151.738L333.325 140.536L351.286 150.964L331.939 162.157ZM313.542 151.487L295.09 140.784L314.442 129.571L332.894 140.282L313.542 151.487ZM294.65 140.53L275.31 129.314L294.662 118.09L314.002 129.317L294.65 140.53ZM274.876 129.061L256.118 118.183L275.487 106.958L294.225 117.836L274.876 129.061ZM255.681 117.929L236.338 106.71L255.707 95.4765L275.051 106.707L255.681 117.929ZM235.904 106.456L217.859 95.9901L237.249 84.7565L255.273 95.2227L235.904 106.456ZM217.422 95.7391L199.531 85.3634L218.942 74.1299L236.809 84.5027L217.422 95.7391ZM198.941 85.2L180.977 74.7805L200.326 63.579L218.287 74.0073L198.941 85.2ZM180.54 74.5296L162.088 63.8271L181.44 52.6139L199.892 63.3252L180.54 74.5296ZM161.651 63.5732L142.311 52.3572L161.663 41.1324L181.003 52.3601L161.651 63.5732ZM161.215 63.8271L142.448 74.6988L123.128 63.4828L141.874 52.611L161.215 63.8271ZM142.014 74.9527L123.032 85.9499L103.688 74.7572L122.691 63.7337L142.014 74.9527ZM122.819 86.3321L122.927 86.5159L123.032 86.4547L141.449 97.1105L124.734 106.789L106.264 96.063L122.705 86.5364L122.487 86.157L105.828 95.8092L86.4582 84.561L103.065 74.9293L103.042 74.8885L122.819 86.3321ZM105.391 96.063L86.7144 106.885L67.3536 95.6458L86.0245 84.8178L105.391 96.063ZM86.2778 107.139L66.9257 118.352L47.5649 107.124L66.917 95.8996L86.2778 107.139ZM66.489 118.603L48.4353 129.063L29.0949 117.836L47.1283 107.375L66.489 118.603ZM47.9987 129.317L28.6466 140.53L9.30618 129.314L28.6582 118.09L47.9987 129.317ZM28.2099 140.781L9.44299 151.653L-9.87704 140.437L8.86954 129.565L28.2099 140.781ZM9.00925 151.907L-9.97311 162.904L-29.3164 151.711L-10.3137 140.688L9.00925 151.907ZM-10.1856 163.286L-10.0779 163.47L-9.97018 163.409L8.47656 174.082L-8.23819 183.761L-26.7082 173.035L-10.2671 163.508L-10.4854 163.129L-27.1448 172.781L-46.5144 161.533L-29.9073 151.901L-29.9307 151.86L-10.1856 163.286ZM-27.5844 173.035L-46.2611 183.857L-65.6219 172.618L-46.951 161.79L-27.5844 173.035ZM-46.6978 184.111L-66.0498 195.324L-85.4106 184.096L-66.0586 172.871L-46.6978 184.111ZM-66.4836 195.575L-84.5373 206.035L-103.878 194.807L-85.8443 184.347L-66.4836 195.575ZM-84.974 206.289L-104.326 217.502L-123.666 206.286L-104.314 195.061L-84.974 206.289ZM-104.763 217.753L-123.53 228.625L-142.85 217.409L-124.103 206.537L-104.763 217.753ZM-123.963 228.879L-142.946 239.876L-162.289 228.683L-143.286 217.66L-123.963 228.879ZM-143.158 240.261L-143.053 240.445L-142.949 240.384L-124.531 251.039L-141.246 260.718L-159.716 249.992L-143.275 240.465L-143.493 240.086L-160.152 249.738L-179.522 238.49L-162.915 228.858L-162.938 228.817L-143.158 240.261ZM-160.586 249.992L-179.263 260.814L-198.624 249.575L-179.953 238.747L-160.586 249.992ZM-179.699 261.065L-199.052 272.278L-218.412 261.05L-199.06 249.826L-179.699 261.065ZM-179.266 261.319L-160.799 272.039L-180.148 283.24L-198.615 272.529L-179.266 261.319ZM-160.362 272.293L-142.39 282.727L-161.736 293.92L-179.711 283.494L-160.362 272.293ZM-141.735 282.852L-123.893 293.211L-143.283 304.444L-161.148 294.083L-141.735 282.852ZM-123.457 293.461L-105.45 303.916L-124.819 315.15L-142.844 304.695L-123.457 293.461ZM-105.013 304.17L-85.6522 315.409L-105.022 326.634L-124.383 315.406L-105.013 304.17ZM-85.2156 315.663L-66.4981 326.529L-85.8502 337.754L-104.588 326.888L-85.2156 315.663ZM-66.0615 326.783L-46.7007 338.022L-66.0527 349.235L-85.4135 338.008L-66.0615 326.783ZM-46.264 338.276L-27.7969 348.996L-47.1461 360.198L-65.6132 349.486L-46.264 338.276ZM-27.3632 349.25L-9.3909 359.684L-28.7372 370.877L-46.7123 360.451L-27.3632 349.25ZM-8.73303 359.81L9.10822 370.168L-10.2817 381.401L-28.1462 371.04L-8.73303 359.81ZM9.54486 370.419L27.5521 380.873L8.18256 392.107L-9.84213 381.652L9.54486 370.419ZM27.9887 381.127L47.3495 392.366L27.98 403.591L8.6192 392.363L27.9887 381.127ZM47.7861 392.62L66.5036 403.486L47.1516 414.711L28.4137 403.845L47.7861 392.62ZM66.9402 403.74L86.301 414.979L66.949 426.193L47.5882 414.965L66.9402 403.74ZM86.7377 415.233L105.205 425.953L85.8557 437.155L67.3885 426.443L86.7377 415.233ZM105.639 426.207L123.611 436.641L104.265 447.834L86.2894 437.409L105.639 426.207ZM124.269 436.764L142.11 447.122L122.72 458.356L104.855 447.994L124.269 436.764ZM142.547 447.376L160.554 457.83L141.184 469.064L123.16 458.609L142.547 447.376ZM142.983 447.125L161.672 436.297L179.667 446.746L160.99 457.576L142.983 447.125ZM162.105 436.043L178.555 426.514L178.468 426.362L196.661 436.889L180.101 446.495L162.105 436.043ZM197.695 436.98L216.764 425.921L236.087 437.14L217.041 448.175L197.695 436.98ZM217.201 425.667L235.927 414.807L255.271 426.026L236.524 436.886L217.201 425.667ZM236.364 414.551L255.733 403.317L275.077 414.548L255.707 425.769L236.364 414.551ZM256.17 403.063L274.186 392.614L293.547 403.842L275.513 414.291L256.17 403.063ZM274.623 392.363L293.992 381.13L313.353 392.369L293.983 403.591L274.623 392.363ZM294.429 380.876L313.105 370.045L332.475 381.293L313.792 392.118L294.429 380.876ZM313.539 369.791L329.969 360.262L330.033 360.376L330.231 360.262L349.513 371.419L332.909 381.039L313.539 369.791ZM330.667 360.008L349.737 348.949L369.06 360.168L350.013 371.204L330.667 360.008ZM350.174 348.696L368.9 337.835L388.243 349.054L369.497 359.917L350.174 348.696ZM369.336 337.579L388.706 326.345L408.049 337.573L388.68 348.798L369.336 337.579ZM389.143 326.091L407.159 315.643L426.519 326.87L408.486 337.319L389.143 326.091ZM388.706 325.84L370.681 315.377L388.697 304.94L406.722 315.395L388.706 325.84ZM389.134 304.683L408.524 293.45L426.531 303.904L407.161 315.138L389.134 304.683ZM408.96 293.196L427.649 282.368L445.644 292.817L426.968 303.648L408.96 293.196ZM428.083 282.117L444.532 272.587L444.445 272.436L462.638 282.963L446.078 292.569L428.083 282.117ZM463.672 283.051L482.742 271.992L502.065 283.211L483.018 294.246L463.672 283.051ZM483.178 271.738L501.904 260.878L521.245 272.097L502.498 282.957L483.178 271.738ZM502.341 260.624L521.711 249.391L541.054 260.619L521.684 271.843L502.341 260.624ZM522.147 249.137L540.163 238.688L559.524 249.916L541.491 260.365L522.147 249.137ZM521.711 248.883L503.686 238.42L521.702 227.983L539.727 238.437L521.711 248.883ZM503.249 238.166L485.382 227.793L503.246 217.458L503.377 217.534L503.456 217.4L521.265 227.729L503.249 238.166ZM484.945 227.539L484.747 227.426L484.637 227.618L466.763 217.242L484.835 206.779L502.81 217.205L484.945 227.539ZM466.33 216.989L447.877 206.277L465.931 195.817L484.398 206.528L466.33 216.989ZM447.44 206.024L428.1 194.796L446.133 184.335L465.494 195.563L447.44 206.024ZM427.663 194.542L408.925 183.664L426.959 173.216L445.697 184.085L427.663 194.542ZM408.489 183.411L389.146 172.18L407.161 161.731L426.522 172.959L408.489 183.411ZM388.712 171.926L370.687 161.463L388.703 151.026L406.728 161.48L388.712 171.926ZM389.137 150.772L408.527 139.538L426.534 149.993L407.164 161.226L389.137 150.772ZM388.703 150.518L370.839 140.157L390.249 128.926L408.09 139.285L388.703 150.518ZM351.946 150.582L351.748 150.468L351.638 150.661L333.765 140.285L351.836 129.822L369.811 140.247L351.946 150.582ZM333.325 140.031L314.872 129.32L332.926 118.86L351.393 129.571L333.325 140.031ZM314.439 129.066L295.098 117.839L313.132 107.378L332.492 118.606L314.439 129.066ZM294.662 117.585L275.924 106.707L293.957 96.2585L312.695 107.127L294.662 117.585ZM275.487 106.453L256.144 95.2227L274.16 84.774L293.521 96.0017L275.487 106.453ZM255.71 94.9688L237.685 84.5027L255.701 74.0657L273.726 84.5202L255.71 94.9688ZM237.249 84.2517L219.381 73.8789L237.246 63.544L237.377 63.6199L237.455 63.4857L255.265 73.8147L237.249 84.2517ZM218.945 73.6251L218.747 73.5113L218.636 73.7038L200.763 63.3281L218.834 52.8649L236.809 63.2902L218.945 73.6251ZM200.326 63.0743L181.874 52.363L199.927 41.9027L218.394 52.6139L200.326 63.0743ZM181.44 52.1091L162.099 40.8814L180.136 30.4211L199.497 41.6488L181.44 52.1091ZM161.663 40.6276L142.925 29.75L160.958 19.3013L179.696 30.1702L161.663 40.6276ZM161.226 40.8785L141.874 52.1033L123.116 41.2257L142.485 30.0009L161.226 40.8785ZM141.438 52.3572L122.691 63.2289L103.933 52.3397L122.679 41.4767L141.438 52.3572ZM122.257 63.4828L103.252 74.5062L84.4526 63.6287L103.499 52.5935L122.257 63.4828ZM102.655 74.6638L86.0245 84.3101L67.3186 73.4471L83.8587 63.865L83.7918 63.7512L102.655 74.6638ZM85.5878 84.5639L66.917 95.3919L48.1995 84.526L66.882 73.7009L85.5878 84.5639ZM66.4803 95.6458L47.1283 106.871L28.3904 96.0017L47.7599 84.7769L66.4803 95.6458ZM46.6916 107.122L28.6582 117.582L9.92038 106.704L27.9538 96.2556L46.6916 107.122ZM28.2216 117.836L8.86954 129.061L-9.8887 118.183L9.48083 106.958L28.2216 117.836ZM8.43579 129.311L-10.3108 140.183L-29.069 129.294L-10.3224 118.431L8.43579 129.311ZM-10.7474 140.437L-29.7531 151.461L-48.552 140.583L-29.5056 129.548L-10.7474 140.437ZM-30.3207 151.636L-46.951 161.282L-65.6568 150.419L-49.1168 140.837L-49.1837 140.723L-30.3207 151.636ZM-47.3877 161.536L-66.0586 172.364L-84.776 161.498L-66.0935 150.673L-47.3877 161.536ZM-66.4923 172.618L-85.8443 183.842L-104.582 172.976L-85.2127 161.752L-66.4923 172.618ZM-86.281 184.093L-104.314 194.554L-123.052 183.676L-105.019 173.227L-86.281 184.093ZM-104.751 194.807L-124.103 206.032L-142.861 195.155L-123.492 183.933L-104.751 194.807ZM-124.54 206.283L-143.286 217.155L-162.045 206.266L-143.298 195.403L-124.54 206.283ZM-143.72 217.409L-162.726 228.432L-181.525 217.555L-162.478 206.52L-143.72 217.409ZM-163.325 228.593L-179.956 238.239L-198.661 227.376L-182.121 217.794L-182.188 217.68L-163.325 228.593ZM-180.392 238.49L-199.063 249.318L-217.781 238.452L-199.098 227.627L-180.392 238.49ZM-199.497 249.572L-218.849 260.797L-237.587 249.931L-218.217 238.709L-199.497 249.572ZM-219.286 261.05L-237.319 271.511L-256.057 260.633L-238.023 250.185L-219.286 261.05ZM-218.849 261.301L-199.488 272.529L-217.542 282.989L-236.882 271.762L-218.849 261.301ZM-199.052 272.783L-180.584 283.494L-198.656 293.958L-217.108 283.246L-199.052 272.783ZM-180.148 283.748L-162.173 294.173L-180.037 304.508L-180.235 304.394L-180.346 304.587L-198.219 294.211L-180.148 283.748ZM-161.736 294.424L-161.605 294.5L-161.526 294.366L-143.717 304.695L-161.733 315.132L-179.601 304.759L-161.736 294.424ZM-143.28 304.949L-125.256 315.403L-143.272 325.852L-161.296 315.389L-143.28 304.949ZM-124.819 315.657L-105.458 326.885L-123.492 337.334L-142.835 326.103L-124.819 315.657ZM-105.022 327.139L-86.2839 338.008L-104.317 348.468L-123.055 337.59L-105.022 327.139ZM-85.8502 338.259L-66.4894 349.486L-84.5432 359.947L-103.884 348.719L-85.8502 338.259ZM-66.0527 349.74L-47.5856 360.451L-65.6568 370.915L-84.1094 360.203L-66.0527 349.74ZM-47.149 360.705L-29.1738 371.131L-47.0355 381.465L-47.2334 381.352L-47.344 381.544L-65.2173 371.169L-47.149 360.705ZM-28.7372 371.384L-28.6061 371.46L-28.5276 371.326L-10.7154 381.655L-28.7313 392.092L-46.5988 381.719L-28.7372 371.384ZM-10.2788 381.906L7.74591 392.361L-10.27 402.809L-28.2947 392.346L-10.2788 381.906ZM8.18256 392.614L27.5433 403.842L9.50992 414.291L-9.83337 403.06L8.18256 392.614ZM27.98 404.096L46.7178 414.965L28.6844 425.425L9.94656 414.548L27.98 404.096ZM47.1516 415.216L66.5123 426.443L48.4586 436.904L29.1181 425.676L47.1516 415.216ZM66.949 426.697L85.4161 437.409L67.3449 447.872L48.8923 437.161L66.949 426.697ZM85.8527 437.662L103.828 448.088L85.9633 458.423L85.7654 458.309L85.6548 458.501L67.7815 448.126L85.8527 437.662ZM104.265 448.339L104.396 448.415L104.474 448.28L122.283 458.609L104.267 469.046L86.4 458.674L104.265 448.339ZM122.72 458.863L140.745 469.318L122.729 479.766L104.704 469.303L122.72 458.863ZM141.181 469.572L160.542 480.799L142.509 491.248L123.165 480.017L141.181 469.572ZM160.979 481.053L179.717 491.922L161.683 502.382L142.945 491.505L160.979 481.053ZM161.415 480.799L180.785 469.575L199.502 480.44L180.15 491.665L161.415 480.799ZM160.979 480.548L141.618 469.321L160.987 458.087L180.348 469.326L160.979 480.548ZM161.424 457.83L180.101 446.999L199.47 458.248L180.788 469.073L161.424 457.83ZM180.537 446.746L196.982 437.207L197.06 437.344L197.258 437.231L216.511 448.371L199.907 457.991L180.537 446.746ZM217.478 448.426L236.524 437.391L255.282 448.28L236.277 459.304L217.478 448.426ZM236.958 437.137L255.704 426.274L274.463 437.152L255.716 448.024L236.958 437.137ZM256.141 426.023L275.51 414.801L294.248 425.679L274.896 436.904L256.141 426.023ZM275.947 414.548L293.981 404.099L312.718 414.968L294.685 425.428L275.947 414.548ZM294.42 403.845L313.789 392.623L332.507 403.489L313.155 414.714L294.42 403.845ZM314.226 392.369L332.909 381.544L351.615 392.407L332.944 403.235L314.226 392.369ZM333.345 381.29L349.885 371.708L349.818 371.595L368.681 382.507L352.051 392.153L333.345 381.29ZM350.45 371.454L369.497 360.419L388.255 371.309L369.249 382.332L350.45 371.454ZM369.933 360.165L388.68 349.302L407.438 360.18L388.691 371.052L369.933 360.165ZM389.114 349.052L408.483 337.83L427.221 348.707L407.869 359.932L389.114 349.052ZM408.923 337.576L426.956 327.127L445.694 337.996L427.66 348.456L408.923 337.576ZM427.393 326.873L446.762 315.651L465.48 326.517L446.128 337.742L427.393 326.873ZM426.956 326.619L407.595 315.392L426.965 304.158L446.326 315.398L426.956 326.619ZM427.401 303.904L446.078 293.073L465.448 304.322L446.765 315.147L427.401 303.904ZM446.515 292.82L462.959 283.281L463.037 283.418L463.235 283.305L482.488 294.445L465.884 304.065L446.515 292.82ZM483.455 294.497L502.501 283.462L521.259 294.351L502.254 305.375L483.455 294.497ZM502.935 283.211L521.682 272.348L540.44 283.226L521.693 294.098L502.935 283.211ZM522.118 272.094L541.488 260.87L560.225 271.747L540.873 282.972L522.118 272.094ZM541.924 260.619L559.958 250.17L578.695 261.039L560.662 271.499L541.924 260.619ZM560.397 249.916L579.767 238.691L598.484 249.557L579.132 260.782L560.397 249.916ZM559.961 249.665L540.6 238.437L559.969 227.204L579.33 238.443L559.961 249.665ZM560.406 226.947L579.083 216.116L598.452 227.364L579.77 238.189L560.406 226.947ZM559.969 226.693L541.962 216.239L560.65 205.411L578.646 215.859L559.969 226.693ZM559.533 226.947L540.163 238.181L522.139 227.726L541.528 216.493L559.533 226.947ZM521.702 227.475L503.837 217.114L523.248 205.883L541.089 216.242L521.702 227.475ZM503.246 216.951L485.271 206.525L504.62 195.324L522.593 205.758L503.246 216.951ZM484.835 206.274L466.367 195.563L485.72 184.35L504.187 195.07L484.835 206.274ZM465.931 195.309L446.57 184.082L465.922 172.857L485.283 184.096L465.931 195.309ZM446.133 183.828L427.396 172.962L446.765 161.74L465.483 172.606L446.133 183.828ZM426.962 172.708L407.601 161.48L426.971 150.247L446.331 161.486L426.962 172.708ZM427.404 149.99L446.081 139.159L465.451 150.407L446.768 161.232L427.404 149.99ZM426.971 149.739L408.963 139.285L427.652 128.457L445.647 138.905L426.971 149.739ZM408.527 139.031L390.685 128.672L409.388 117.85L427.215 128.203L408.527 139.031ZM370.245 139.994L352.269 129.568L371.619 118.367L389.591 128.801L370.245 139.994ZM351.833 129.317L333.366 118.606L352.718 107.393L371.185 118.113L351.833 129.317ZM332.929 118.352L313.568 107.124L332.92 95.8996L352.281 107.139L332.929 118.352ZM313.132 106.871L294.394 96.0047L313.763 84.7828L332.481 95.6487L313.132 106.871ZM274.163 84.2692L256.138 73.8147L275.528 62.5812L293.535 73.0357L274.163 84.2692ZM255.701 73.5609L237.837 63.1997L257.247 51.9691L275.088 62.3273L255.701 73.5609ZM237.243 63.0363L219.268 52.611L238.617 41.4095L256.589 51.8436L237.243 63.0363ZM218.834 52.3601L200.367 41.6488L219.719 30.4357L238.186 41.1557L218.834 52.3601ZM199.93 41.395L180.57 30.1672L199.922 18.9424L219.282 30.1818L199.93 41.395ZM180.133 29.9134L161.395 19.0445L180.765 7.81974L199.482 18.6857L180.133 29.9134ZM160.522 19.0475L142.488 29.4961L123.145 18.2655L141.161 7.81682L160.522 19.0475ZM142.052 29.7471L122.682 40.9719L103.339 29.7529L122.708 18.5193L142.052 29.7471ZM122.246 41.2228L103.499 52.0858L84.176 40.8668L102.902 30.0038L122.246 41.2228ZM103.062 52.3397L84.0159 63.3748L64.6697 52.1821L83.7394 41.1236L103.062 52.3397ZM64.038 52.5468L64.236 52.433L83.489 63.5732L66.8849 73.1932L47.5154 61.9451L63.9594 52.4068L64.038 52.5468ZM66.4454 73.4471L47.7628 84.2722L28.4021 73.0328L47.0788 62.2019L66.4454 73.4471ZM47.3262 84.526L27.9567 95.7508L8.59589 84.5231L27.9654 73.2895L47.3262 84.526ZM27.52 96.0017L9.48666 106.45L-9.85956 95.2227L8.15631 84.774L27.52 96.0017ZM9.04709 106.704L-10.3224 117.929L-29.6657 106.71L-10.2962 95.4765L9.04709 106.704ZM-10.7591 118.18L-29.5056 129.043L-48.8286 117.824L-30.1024 106.961L-10.7591 118.18ZM-29.9423 129.294L-48.9887 140.329L-68.3349 129.136L-49.2652 118.078L-29.9423 129.294ZM-68.9666 129.504L-68.7686 129.39L-49.4865 140.548L-66.0906 150.168L-85.4601 138.92L-69.0306 129.39L-68.9666 129.504ZM-66.5301 150.419L-85.2127 161.244L-104.573 150.005L-85.8968 139.174L-66.5301 150.419ZM-85.6493 161.498L-105.019 172.723L-124.38 161.495L-105.01 150.261L-85.6493 161.498ZM-105.455 172.974L-123.489 183.422L-142.832 172.194L-124.816 161.746L-105.455 172.974ZM-123.926 183.676L-143.295 194.901L-162.638 183.682L-143.269 172.448L-123.926 183.676ZM-143.732 195.152L-162.478 206.015L-181.801 194.796L-163.075 183.936L-143.732 195.152ZM-162.915 206.266L-181.961 217.301L-201.308 206.108L-182.238 195.05L-162.915 206.266ZM-201.939 206.476L-201.741 206.362L-182.488 217.502L-199.092 227.122L-218.462 215.874L-202.018 206.336L-201.939 206.476ZM-199.532 227.376L-218.214 238.201L-237.575 226.962L-218.898 216.131L-199.532 227.376ZM-218.651 238.452L-238.021 249.677L-257.381 238.449L-238.012 227.216L-218.651 238.452ZM-238.457 249.928L-256.491 260.376L-275.834 249.146L-257.818 238.697L-238.457 249.928ZM-256.93 260.63L-276.3 271.855L-295.643 260.636L-276.273 249.403L-256.93 260.63ZM-256.493 260.884L-237.756 271.762L-257.108 282.987L-275.863 272.106L-256.493 260.884ZM-237.319 272.016L-217.979 283.243L-237.331 294.456L-256.671 283.24L-237.319 272.016ZM-217.542 283.497L-199.089 294.208L-218.439 305.41L-236.891 294.707L-217.542 283.497ZM-198.656 294.462L-180.695 304.891L-200.041 316.083L-218.005 305.664L-198.656 294.462ZM-180.037 305.013L-162.17 315.386L-181.56 326.619L-199.45 316.244L-180.037 305.013ZM-161.733 315.64L-143.708 326.106L-163.078 337.339L-181.123 326.873L-161.733 315.64ZM-143.272 326.36L-123.928 337.587L-143.298 348.812L-162.641 337.593L-143.272 326.36ZM-123.495 337.841L-104.757 348.719L-124.109 359.944L-142.867 349.066L-123.495 337.841ZM-104.32 348.973L-84.9798 360.2L-104.332 371.414L-123.672 360.198L-104.32 348.973ZM-84.5432 360.454L-66.0906 371.166L-85.4397 382.367L-103.892 371.665L-84.5432 360.454ZM-65.6539 371.419L-47.6933 381.848L-67.0396 393.04L-85.0031 382.621L-65.6539 371.419ZM-47.0355 381.97L-29.168 392.343L-48.5579 403.577L-66.4486 393.201L-47.0355 381.97ZM-28.7313 392.597L-10.7067 403.063L-30.0762 414.297L-48.1212 403.83L-28.7313 392.597ZM-10.27 403.317L9.07327 414.548L-10.2962 425.772L-29.6396 414.553L-10.27 403.317ZM9.50702 414.798L28.2448 425.676L8.89279 436.901L-9.86539 426.023L9.50702 414.798ZM28.6815 425.93L48.0219 437.158L28.6699 448.371L9.32944 437.155L28.6815 425.93ZM48.4586 437.411L66.9111 448.123L47.562 459.324L29.1094 448.622L48.4586 437.411ZM67.3478 448.377L85.3084 458.805L65.9622 469.998L47.9987 459.578L67.3478 448.377ZM85.9633 458.927L103.831 469.3L84.4409 480.534L66.5502 470.158L85.9633 458.927ZM104.267 469.554L122.292 480.02L102.923 491.254L84.8776 480.788L104.267 469.554ZM122.729 480.271L142.072 491.502L122.703 502.727L103.359 491.508L122.729 480.271ZM142.509 491.756L161.247 502.633L141.895 513.858L123.136 502.98L142.509 491.756ZM161.683 502.887L181.024 514.115L161.672 525.328L142.331 514.112L161.683 502.887ZM162.117 502.633L180.15 492.173L199.511 503.401L181.457 513.861L162.117 502.633ZM180.59 491.919L199.942 480.694L219.303 491.934L199.951 503.147L180.59 491.919ZM200.376 480.443L219.047 469.615L238.416 480.864L219.739 491.686L200.376 480.443ZM199.939 480.19L181.222 469.324L199.904 458.499L218.61 469.362L199.939 480.19ZM200.341 458.248L216.881 448.666L216.814 448.552L235.677 459.467L219.047 469.114L200.341 458.248ZM236.713 459.555L255.716 448.531L275.036 459.747L256.054 470.745L236.713 459.555ZM256.153 448.28L274.899 437.409L294.24 448.625L275.473 459.496L256.153 448.28ZM275.336 437.155L294.688 425.93L314.028 437.158L294.676 448.371L275.336 437.155ZM295.122 425.679L313.158 415.219L332.519 426.446L314.465 436.907L295.122 425.679ZM313.592 414.965L332.944 403.74L352.304 414.979L332.952 426.193L313.592 414.965ZM333.38 403.489L352.051 392.661L371.421 403.909L352.744 414.731L333.38 403.489ZM371.854 404.16L390.325 414.886L371.642 425.702L353.175 414.982L371.854 404.16ZM372.291 403.906L388.732 394.38L388.514 394L371.854 403.652L352.485 392.404L369.092 382.773L369.069 382.732L388.814 394.158L388.921 394.342L389.029 394.28L407.476 404.954L390.761 414.632L372.291 403.906ZM369.686 382.583L388.689 371.56L408.009 382.776L389.026 393.773L369.686 382.583ZM389.125 371.309L407.872 360.437L427.212 371.653L408.445 382.525L389.125 371.309ZM408.308 360.183L427.66 348.958L447.001 360.186L427.649 371.399L408.308 360.183ZM428.094 348.707L446.13 338.247L465.491 349.475L447.438 359.935L428.094 348.707ZM446.567 337.993L465.919 326.768L485.28 338.008L465.928 349.221L446.567 337.993ZM466.353 326.517L485.024 315.689L504.393 326.937L485.717 337.76L466.353 326.517ZM465.916 326.263L447.199 315.398L465.881 304.572L484.587 315.435L465.916 326.263ZM466.318 304.319L482.858 294.737L482.791 294.623L501.654 305.535L485.024 315.182L466.318 304.319ZM502.69 305.629L521.693 294.605L541.013 305.821L522.031 316.819L502.69 305.629ZM522.13 294.354L540.876 283.483L560.217 294.699L541.453 305.57L522.13 294.354ZM541.313 283.229L560.665 272.004L580.005 283.232L560.653 294.445L541.313 283.229ZM561.099 271.75L579.132 261.29L598.493 272.517L580.439 282.978L561.099 271.75ZM579.569 261.039L598.921 249.814L618.282 261.053L598.93 272.267L579.569 261.039ZM598.921 249.309L580.203 238.443L598.886 227.618L617.592 238.481L598.921 249.309ZM599.323 227.364L615.863 217.782L615.796 217.668L634.659 228.584L618.028 238.23L599.323 227.364ZM598.886 227.111L579.516 215.862L596.077 206.257L615.49 217.491L598.886 227.111ZM579.083 215.609L561.087 205.16L577.537 195.63L577.45 195.479L595.643 206.006L579.083 215.609ZM560.653 204.906L542.827 194.554L559.341 184.998L577.188 195.324L560.653 204.906ZM560.217 205.16L541.528 215.988L523.687 205.63L533.704 199.835L542.39 194.807L560.217 205.16ZM523.25 205.376L523.076 205.274L522.965 205.466L505.06 195.07L523.742 184.254L541.718 194.691L523.25 205.376ZM504.62 194.819L486.153 184.099L504.83 173.277L523.3 184.003L504.62 194.819ZM485.72 183.845L466.359 172.606L485.03 161.778L504.399 173.026L485.72 183.845ZM465.922 172.352L447.205 161.486L465.887 150.661L484.593 161.524L465.922 172.352ZM466.324 150.407L482.864 140.825L482.797 140.711L501.66 151.627L485.03 161.273L466.324 150.407ZM465.887 150.153L446.518 138.905L463.078 129.3L482.491 140.533L465.887 150.153ZM446.081 138.654L428.085 128.206L444.535 118.676L444.448 118.524L462.641 129.052L446.081 138.654ZM427.652 127.952L409.825 117.599L426.339 108.044L444.186 118.37L427.652 127.952ZM390.249 128.419L390.074 128.316L389.964 128.509L372.055 118.113L390.738 107.297L408.713 117.734L390.249 128.419ZM371.619 117.862L353.152 107.142L371.828 96.3198L390.298 107.046L371.619 117.862ZM352.715 106.888L333.354 95.6487L352.025 84.8207L371.395 96.0688L352.715 106.888ZM332.92 95.3948L314.203 84.5289L332.885 73.7038L351.591 84.5668L332.92 95.3948ZM333.319 73.45L349.859 63.8679L349.792 63.7541L368.655 74.6696L352.025 84.3159L333.319 73.45ZM332.885 73.1962L313.516 61.948L330.079 52.3426L349.492 63.5761L332.885 73.1962ZM313.079 61.6971L295.084 51.2484L311.534 41.7188L311.446 41.5671L329.64 52.0946L313.079 61.6971ZM312.646 61.948L293.969 72.7789L275.962 62.3244L294.65 51.4964L312.646 61.948ZM275.525 62.0735L257.684 51.7152L276.387 40.8931L294.213 51.2455L275.525 62.0735ZM257.247 51.4614L257.072 51.3593L256.962 51.5518L239.056 41.1557L257.739 30.3394L275.714 40.7764L257.247 51.4614ZM238.62 40.9048L220.153 30.1847L238.829 19.3626L257.299 30.0885L238.62 40.9048ZM219.716 29.9309L200.355 18.6915L219.026 7.86351L238.396 19.1117L219.716 29.9309ZM199.919 18.4376L181.201 7.57173L199.884 -3.25334L218.59 7.60966L199.919 18.4376ZM200.32 -3.50719L216.86 -13.0893L216.793 -13.2031L235.656 -2.28754L219.026 7.35873L200.32 -3.50719ZM199.884 -3.76104L180.517 -15.0092L197.08 -24.6146L216.491 -13.384L199.884 -3.76104ZM180.081 -15.2601L162.085 -25.7088L178.535 -35.2383L178.447 -35.3901L196.641 -24.8626L180.081 -15.2601ZM179.644 -15.0092L160.967 -4.17828L142.96 -14.6328L161.648 -25.4608L179.644 -15.0092ZM140.724 7.56298L122.708 18.0116L104.684 7.54839L122.7 -2.88861L140.724 7.56298ZM102.466 29.7529L83.7394 40.613L65.6943 30.1381L84.4205 19.2867L102.466 29.7529ZM83.3027 40.8668L64.233 51.9282L46.1472 41.465L65.2577 30.3919L83.3027 40.8668ZM63.6392 52.0887L47.0788 61.6942L29.0832 51.2455L45.5331 41.7159L45.4457 41.5642L63.6392 52.0887ZM46.6421 61.948L27.9654 72.7789L9.95822 62.3244L28.6466 51.4964L46.6421 61.948ZM7.7226 84.5202L-10.2933 94.9688L-28.318 84.5056L-10.302 74.0686L7.7226 84.5202ZM-30.5361 106.71L-49.2623 117.57L-67.3074 107.095L-48.5811 96.2439L-30.5361 106.71ZM-49.699 117.824L-68.7686 128.885L-86.8545 118.422L-67.744 107.349L-49.699 117.824ZM-87.2911 118.165L-105.228 107.787L-86.0743 96.7049L-68.1807 107.092L-87.2911 118.165ZM-69.3363 129.061L-85.8968 138.666L-103.892 128.217L-87.4424 118.688L-87.5298 118.536L-69.3363 129.061ZM-86.3334 138.92L-105.01 149.751L-123.017 139.296L-104.329 128.468L-86.3334 138.92ZM-125.253 161.492L-143.269 171.941L-161.294 161.474L-143.278 151.037L-125.253 161.492ZM-163.512 183.682L-182.238 194.542L-200.283 184.067L-181.557 173.216L-163.512 183.682ZM-182.674 194.796L-201.744 205.857L-219.83 195.394L-200.72 184.321L-182.674 194.796ZM-202.341 206.018L-218.901 215.623L-236.897 205.174L-220.447 195.645L-220.534 195.493L-202.341 206.018ZM-219.338 215.874L-238.015 226.705L-256.022 216.25L-237.334 205.422L-219.338 215.874ZM-258.255 238.446L-276.271 248.895L-294.295 238.432L-276.279 227.995L-258.255 238.446ZM-296.08 260.89L-276.736 272.109L-295.483 282.972L-314.806 271.753L-296.08 260.89ZM-276.3 272.36L-257.541 283.237L-276.288 294.109L-295.046 283.22L-276.3 272.36ZM-276.725 294.363L-295.73 305.387L-314.529 294.509L-295.483 283.474L-276.725 294.363ZM-276.288 294.617L-256.968 305.833L-275.95 316.83L-295.294 305.637L-276.288 294.617ZM-275.851 294.363L-257.105 283.491L-237.764 294.707L-256.531 305.579L-275.851 294.363ZM-237.331 294.961L-218.878 305.664L-237.66 316.538L-256.098 305.836L-237.331 294.961ZM-218.441 305.918L-200.478 316.337L-219.053 327.086L-219.082 327.069L-219.111 327.118L-219.274 327.212L-237.223 316.792L-218.441 305.918ZM-219.711 327.466L-238.643 338.419L-256.616 328.02L-237.66 317.046L-219.711 327.466ZM-200.041 316.588L-199.931 316.652L-199.852 316.518L-181.993 326.876L-200.72 337.728L-218.613 327.34L-200.041 316.588ZM-163.078 337.847L-143.735 349.066L-162.481 359.929L-181.804 348.71L-163.078 337.847ZM-143.301 349.317L-124.543 360.195L-143.289 371.066L-162.047 360.177L-143.301 349.317ZM-143.726 371.32L-162.731 382.344L-181.53 371.466L-162.484 360.431L-143.726 371.32ZM-143.289 371.574L-123.969 382.79L-142.952 393.787L-162.295 382.595L-143.289 371.574ZM-142.853 371.32L-124.106 360.448L-104.766 371.665L-123.53 382.536L-142.853 371.32ZM-104.329 371.918L-85.8763 382.621L-104.658 393.496L-123.096 382.793L-104.329 371.918ZM-85.4397 382.875L-67.4762 393.294L-86.051 404.041L-86.0801 404.023L-86.1093 404.073L-86.2752 404.169L-104.224 393.749L-85.4397 382.875ZM-86.7089 404.423L-105.642 415.376L-123.614 404.977L-104.658 394.003L-86.7089 404.423ZM-67.0396 393.545L-66.9289 393.609L-66.8503 393.475L-48.9916 403.833L-67.7178 414.685L-85.6115 404.297L-67.0396 393.545ZM-30.0762 414.804L-10.7328 426.023L-29.4794 436.886L-48.8024 425.667L-30.0762 414.804ZM-10.2991 426.274L8.45908 437.152L-10.2875 448.024L-29.0457 437.134L-10.2991 426.274ZM-10.7242 448.277L-29.7298 459.301L-48.5288 448.423L-29.4824 437.388L-10.7242 448.277ZM-10.2875 448.531L9.03253 459.747L-9.94983 470.745L-29.2902 459.555L-10.2875 448.531ZM-9.85086 448.277L8.89572 437.406L28.2361 448.622L9.46918 459.493L-9.85086 448.277ZM28.6728 448.876L47.1254 459.578L28.3438 470.453L9.90582 459.75L28.6728 448.876ZM47.562 459.832L65.5255 470.251L46.9507 481.001L46.9216 480.983L46.8925 481.033L46.7294 481.126L28.7805 470.707L47.562 459.832ZM46.2928 481.377L27.36 492.331L9.3877 481.931L28.3438 470.958L46.2928 481.377ZM65.9622 470.502L66.0728 470.567L66.1514 470.432L84.0101 480.791L65.2839 491.642L47.3902 481.255L65.9622 470.502ZM102.923 491.762L122.263 502.98L103.516 513.841L84.1935 502.622L102.923 491.762ZM122.703 503.231L141.461 514.109L122.714 524.981L103.956 514.092L122.703 503.231ZM122.278 525.235L103.272 536.258L84.4729 525.38L103.519 514.345L122.278 525.235ZM122.714 525.488L142.034 536.705L123.052 547.702L103.709 536.509L122.714 525.488ZM123.148 525.235L141.895 514.363L161.235 525.579L142.471 536.451L123.148 525.235ZM161.672 525.833L180.124 536.535L161.343 547.41L142.905 536.707L161.672 525.833ZM181.894 514.115L199.948 503.655L218.415 514.366L200.347 524.829L181.894 514.115ZM200.384 503.401L219.736 492.188L238.204 502.908L218.854 514.109L200.384 503.401ZM238.637 503.164L256.61 513.598L237.263 524.791L219.288 514.366L238.637 503.164ZM239.074 502.91L257.757 492.094L275.732 502.531L257.046 513.342L239.074 502.91ZM238.64 502.657L220.173 491.937L238.85 481.114L257.32 491.84L238.64 502.657ZM239.286 480.864L255.728 471.337L255.509 470.958L238.85 480.61L219.48 469.362L236.087 459.73L236.064 459.689L255.841 471.133L255.946 471.316L256.051 471.255L274.468 481.911L257.754 491.589L239.286 480.864ZM275.091 481.552L274.908 481.657L256.49 471.001L275.473 460.004L293.911 470.707L275.115 481.59L275.091 481.552ZM275.909 459.75L294.676 448.879L313.129 459.581L294.347 470.456L275.909 459.75ZM314.899 437.161L332.952 426.7L351.419 437.411L333.348 447.875L314.899 437.161ZM333.389 426.446L352.741 415.233L371.208 425.953L351.859 437.155L333.389 426.446ZM371.642 426.207L389.614 436.641L370.268 447.834L352.293 437.409L371.642 426.207ZM372.079 425.956L390.761 415.14L408.736 425.577L390.051 436.387L372.079 425.956ZM391.198 414.886L407.912 405.208L425.926 415.63L409.033 425.405L409.103 425.285L391.198 414.886ZM408.096 404.598L407.912 404.703L389.466 394.03L408.445 383.032L426.883 393.735L408.102 404.609L408.096 404.598ZM408.882 382.778L427.649 371.907L446.101 382.609L427.32 393.484L408.882 382.778ZM447.871 360.189L465.925 349.728L484.392 360.44L466.321 370.903L447.871 360.189ZM466.362 349.475L485.714 338.262L504.181 348.982L484.832 360.183L466.362 349.475ZM504.615 349.235L522.587 359.669L503.241 370.862L485.265 360.437L504.615 349.235ZM505.051 348.984L523.734 338.168L541.709 348.605L523.023 359.416L505.051 348.984ZM504.617 348.731L486.15 338.011L504.827 327.188L523.297 337.914L504.617 348.731ZM505.264 326.935L521.705 317.408L521.486 317.029L504.827 326.681L485.457 315.433L502.065 305.801L502.041 305.76L521.818 317.204L521.923 317.387L522.028 317.326L540.446 327.982L523.731 337.66L505.264 326.935ZM541.068 327.626L540.885 327.731L522.467 317.075L541.447 306.078L559.885 316.781L541.089 327.664L541.068 327.626ZM541.886 305.824L560.653 294.952L579.106 305.655L560.324 316.53L541.886 305.824ZM580.876 283.232L598.93 272.771L617.397 283.483L599.328 293.946L580.876 283.232ZM599.366 272.52L618.718 261.307L637.185 272.027L617.836 283.229L599.366 272.52ZM637.619 272.281L655.591 282.715L636.245 293.908L618.27 283.483L637.619 272.281ZM675.01 271.476L675.08 271.356L657.175 260.957L673.893 251.279L691.906 261.701L675.01 271.476ZM656.738 260.706L638.268 249.98L654.709 240.454L654.491 240.074L637.832 249.726L618.462 238.478L635.069 228.847L635.046 228.806L673.453 251.028L656.738 260.706ZM542.39 194.303L542.218 194.203L542.044 194.504L542.012 194.522L542.081 194.402L524.176 184.003L540.891 174.324L558.904 184.747L542.39 194.303ZM523.74 183.749L505.269 173.023L521.711 163.496L521.492 163.117L504.833 172.769L485.463 161.521L502.07 151.889L502.047 151.849L540.454 174.071L523.74 183.749ZM409.388 117.346L409.217 117.246L409.045 117.544L409.01 117.564L409.08 117.445L391.174 107.046L407.892 97.3673L425.905 107.79L409.388 117.346ZM390.738 106.792L372.268 96.0659L388.709 86.5393L388.491 86.16L371.831 95.8121L352.462 84.5639L369.069 74.9323L369.045 74.8914L407.453 97.1134L390.738 106.792ZM311.187 41.4125L294.65 50.9945L276.823 40.6422L293.34 31.0863L311.187 41.4125ZM276.387 40.3883L276.215 40.2891L276.04 40.5896L276.008 40.6071L276.078 40.4875L258.173 30.0885L274.89 20.4101L292.903 30.8325L276.387 40.3883ZM257.736 29.8346L239.266 19.1087L255.707 9.5821L255.489 9.20278L238.829 18.8549L219.46 7.60674L236.067 -2.02494L236.044 -2.06579L274.451 20.1562L257.736 29.8346ZM160.338 -45.8708L178.185 -35.5447L161.648 -25.9626L143.822 -36.315L160.338 -45.8708ZM143.388 -36.0641L161.215 -25.7117L142.526 -14.8837L124.685 -25.2419L143.388 -36.0641ZM104.398 -13.5036L122.263 -3.14246L104.247 7.29454L86.3796 -3.07827L104.398 -13.5036ZM66.0961 8.66007L83.9868 19.0358L65.2606 29.8871L47.367 19.4997L66.0961 8.66007ZM46.9274 19.7507L64.821 30.1381L45.7106 41.2111L27.7733 30.8325L46.9274 19.7507ZM27.3338 31.0834L45.1808 41.4095L28.6437 50.9916L10.817 40.6392L27.3338 31.0834ZM10.3832 40.8931L28.2099 51.2455L9.52158 62.0735L-8.3197 51.7152L10.3832 40.8931ZM-28.6032 63.4507L-10.7387 73.8118L-28.7546 84.2488L-46.6221 73.876L-28.6032 63.4507ZM-66.9086 85.6143L-49.0178 95.9901L-67.744 106.841L-85.6377 96.454L-66.9086 85.6143ZM-105.639 108.055L-87.7918 118.381L-104.329 127.963L-122.156 117.611L-105.639 108.055ZM-122.589 117.865L-104.763 128.217L-123.451 139.045L-141.292 128.687L-122.589 117.865ZM-161.579 140.422L-143.714 150.784L-161.73 161.221L-179.598 150.851L-161.579 140.422ZM-199.881 162.586L-181.99 172.962L-200.717 183.813L-218.61 173.426L-199.881 162.586ZM-219.05 173.677L-201.156 184.064L-220.264 195.137L-238.201 184.759L-219.05 173.677ZM-238.643 185.009L-220.796 195.336L-237.334 204.918L-255.16 194.565L-238.643 185.009ZM-255.594 194.819L-237.767 205.172L-256.456 216L-274.297 205.641L-255.594 194.819ZM-294.58 217.38L-276.716 227.741L-294.732 238.178L-312.599 227.805L-294.58 217.38ZM-332.886 239.54L-314.995 249.916L-333.721 260.767L-351.615 250.38L-332.886 239.54ZM-352.052 250.634L-334.158 261.021L-353.268 272.094L-371.206 261.716L-352.052 250.634ZM-315.242 272.004L-295.92 283.223L-314.966 294.258L-334.312 283.065L-315.242 272.004ZM-256.531 306.087L-238.093 316.789L-257.049 327.766L-275.511 317.084L-256.531 306.087ZM-219.274 327.717L-219.219 327.749L-219.163 327.652L-219.053 327.588L-201.159 337.976L-220.27 349.049L-238.207 338.67L-219.274 327.717ZM-182.241 348.961L-162.918 360.18L-181.964 371.215L-201.31 360.022L-182.241 348.961ZM-123.533 383.044L-105.095 393.747L-124.051 404.723L-142.512 394.041L-123.533 383.044ZM-86.2722 404.677L-86.2169 404.709L-86.1617 404.612L-86.0481 404.548L-68.1544 414.936L-87.2649 426.009L-105.202 415.63L-86.2722 404.677ZM-49.239 425.918L-29.9161 437.137L-48.9625 448.172L-68.3087 436.98L-49.239 425.918ZM9.46918 460.001L27.9072 470.704L8.95105 481.68L-9.51025 470.998L9.46918 460.001ZM46.7265 481.631L46.7819 481.663L46.8372 481.567L46.9478 481.503L64.8415 491.89L45.731 502.963L27.7937 492.584L46.7265 481.631ZM83.7598 502.875L103.083 514.094L84.0363 525.13L64.6901 513.937L83.7598 502.875ZM142.471 536.958L160.909 547.661L141.953 558.638L123.491 547.956L142.471 536.958ZM160.359 569.291L142.386 558.892L161.343 547.918L179.292 558.337L160.359 569.291ZM179.728 558.083L161.779 547.664L180.561 536.789L198.524 547.209L179.728 558.083ZM218.744 535.508L200.783 525.08L218.854 514.617L236.83 525.042L218.744 535.508ZM276.031 502.359L276.101 502.239L258.196 491.84L274.914 482.162L292.927 492.584L276.031 502.359ZM293.363 492.336L275.391 481.937L294.347 470.963L312.296 481.383L293.363 492.336ZM312.733 481.129L294.784 470.71L313.565 459.835L331.529 470.254L312.733 481.129ZM351.748 458.551L333.788 448.123L351.859 437.66L369.834 448.085L351.748 458.551ZM426.336 415.362L408.364 404.963L427.32 393.989L445.269 404.408L426.336 415.362ZM445.706 404.154L427.757 393.735L446.538 382.86L464.502 393.28L445.706 404.154ZM484.721 381.579L466.76 371.151L484.832 360.688L502.807 371.113L484.721 381.579ZM542.009 348.433L542.079 348.313L524.173 337.914L540.888 328.236L558.901 338.658L542.009 348.433ZM559.341 338.407L541.368 328.008L560.324 317.034L578.273 327.454L559.341 338.407ZM578.71 327.2L560.761 316.781L579.543 305.906L597.506 316.325L578.71 327.2ZM617.726 304.625L599.765 294.197L617.836 283.733L635.812 294.159L617.726 304.625Z" fill="url(#paint1_linear)"></path></g><path opacity="0.4" d="M35.2074 54.3039L35.2016 23.0717L-5.48199 -0.39917L-5.47617 30.8331L35.2074 54.3039Z" fill="#5333ED"></path><path opacity="0.3" d="M351.169 297.091L351.158 238.921L275.382 195.207L275.397 253.376L351.169 297.091Z" fill="#5333ED"></path><path d="M121.819 151.461L121.601 151.335L9.76484 86.8197V86.7351L9.74738 0.686035L9.9657 0.811499L121.802 65.3272V65.4118L121.819 151.461ZM10.0559 86.6505L121.528 150.956L121.511 65.4964L10.0385 1.19082L10.0559 86.6505Z" fill="#5333ED"></path><path d="M320.089 297.342L319.871 297.216L253.18 258.745L253.169 207.269L253.387 207.394L320.077 245.866L320.089 297.342ZM253.472 258.576L319.798 296.837L319.786 246.035L253.46 207.774L253.472 258.576Z" fill="#5333ED"></path></g></g><defs><linearGradient id="paint0_linear" x1="147.51" y1="-4.52243" x2="147.51" y2="346.818" gradientUnits="userSpaceOnUse"><stop offset="0.5625" stop-color="#1E1080"></stop><stop offset="1" stop-color="#19143A"></stop></linearGradient><linearGradient id="paint1_linear" x1="238.544" y1="-79.8509" x2="153.554" y2="289.651" gradientUnits="userSpaceOnUse"><stop stop-color="#9C9B9B" stop-opacity="0"></stop><stop offset="1" stop-color="#9C9B9B" stop-opacity="0.6"></stop></linearGradient><clipPath id="clip0"><rect width="293" height="344" fill="white"></rect></clipPath><clipPath id="clip1"><rect width="425" height="354" fill="white" transform="translate(-36)"></rect></clipPath></defs></svg> 